# MagicaVoxel @ Ephtracy

# group
o 

# material
mtllib road4.1.mtl
usemtl palette

# normals
vn -1 0 0
vn 1 0 0
vn 0 0 1
vn 0 0 -1
vn 0 -1 0
vn 0 1 0

# texcoords
vt 0.958984 0.5
vt 0.986328 0.5
vt 0.994141 0.5

# verts
v -4.9 2 4.9
v -4.9 2 2.9
v -4.9 2 0
v -4.9 2 -0.0999999
v -4.9 2 -3
v -4.9 2 -5
v -4.9 2.1 4.9
v -4.9 2.1 2.9
v -4.9 2.1 0
v -4.9 2.1 -0.0999999
v -4.9 2.1 -3
v -4.9 2.1 -5
v 5 2 4.9
v 5 2 2.9
v 5 2 0
v 5 2 -0.0999999
v 5 2 -3
v 5 2 -5
v 5 2.1 4.9
v 5 2.1 2.9
v 5 2.1 0
v 5 2.1 -0.0999999
v 5 2.1 -3
v 5 2.1 -5
v -4.9 2 4.9
v -4.9 2.1 4.9
v -2.9 2 4.9
v -2.9 2.1 4.9
v 0 2 4.9
v 0 2.1 4.9
v 0.0999999 2 4.9
v 0.0999999 2.1 4.9
v 3 2 4.9
v 3 2.1 4.9
v 5 2 4.9
v 5 2.1 4.9
v -4.9 2 -5
v -4.9 2.1 -5
v 5 2 -5
v 5 2.1 -5
v -4.9 2 4.9
v -2.9 2 4.9
v 0 2 4.9
v 0.0999999 2 4.9
v 3 2 4.9
v 5 2 4.9
v -3 2 4.4
v -2.9 2 4.4
v 0 2 4.4
v 0.0999999 2 4.4
v 3 2 4.4
v 3.1 2 4.4
v 0 2 4.2
v 0.0999999 2 4.2
v -3.1 2 4.1
v -3 2 4.1
v 3.1 2 4.1
v 3.2 2 4.1
v -3.2 2 3.9
v -3.1 2 3.9
v 3.2 2 3.9
v 3.3 2 3.9
v -3.3 2 3.7
v -3.2 2 3.7
v 0 2 3.7
v 0.0999999 2 3.7
v 3.3 2 3.7
v 3.4 2 3.7
v -3.4 2 3.6
v -3.3 2 3.6
v 3.4 2 3.6
v 3.5 2 3.6
v -3.5 2 3.5
v -3.4 2 3.5
v 0 2 3.5
v 0.0999999 2 3.5
v 3.5 2 3.5
v 3.6 2 3.5
v -3.6 2 3.4
v -3.5 2 3.4
v 3.6 2 3.4
v 3.7 2 3.4
v -3.7 2 3.3
v -3.6 2 3.3
v 3.7 2 3.3
v 3.8 2 3.3
v -3.9 2 3.2
v -3.7 2 3.2
v 3.8 2 3.2
v 4 2 3.2
v -4.1 2 3.1
v -3.9 2 3.1
v 4 2 3.1
v 4.2 2 3.1
v -4.4 2 3
v -4.1 2 3
v 0 2 3
v 0.0999999 2 3
v 4.2 2 3
v 4.5 2 3
v -4.9 2 2.9
v -4.4 2 2.9
v 4.5 2 2.9
v 5 2 2.9
v -4.9 2 0
v -4.4 2 0
v -4.2 2 0
v -3.7 2 0
v -3.5 2 0
v -3 2 0
v 3.1 2 0
v 3.6 2 0
v 3.8 2 0
v 4.3 2 0
v 4.5 2 0
v 5 2 0
v -4.9 2 -0.0999999
v -4.4 2 -0.0999999
v -4.2 2 -0.0999999
v -3.7 2 -0.0999999
v -3.5 2 -0.0999999
v -3 2 -0.0999999
v 3.1 2 -0.0999999
v 3.6 2 -0.0999999
v 3.8 2 -0.0999999
v 4.3 2 -0.0999999
v 4.5 2 -0.0999999
v 5 2 -0.0999999
v -4.9 2 -3
v 5 2 -3
v -4.9 2 -5
v 5 2 -5
v -4.9 2.1 4.9
v -2.9 2.1 4.9
v 0 2.1 4.9
v 0.0999999 2.1 4.9
v 3 2.1 4.9
v 5 2.1 4.9
v -3 2.1 4.4
v -2.9 2.1 4.4
v 0 2.1 4.4
v 0.0999999 2.1 4.4
v 3 2.1 4.4
v 3.1 2.1 4.4
v 0 2.1 4.2
v 0.0999999 2.1 4.2
v -3.1 2.1 4.1
v -3 2.1 4.1
v 3.1 2.1 4.1
v 3.2 2.1 4.1
v -3.2 2.1 3.9
v -3.1 2.1 3.9
v 3.2 2.1 3.9
v 3.3 2.1 3.9
v -3.3 2.1 3.7
v -3.2 2.1 3.7
v 0 2.1 3.7
v 0.0999999 2.1 3.7
v 3.3 2.1 3.7
v 3.4 2.1 3.7
v -3.4 2.1 3.6
v -3.3 2.1 3.6
v 3.4 2.1 3.6
v 3.5 2.1 3.6
v -3.5 2.1 3.5
v -3.4 2.1 3.5
v 0 2.1 3.5
v 0.0999999 2.1 3.5
v 3.5 2.1 3.5
v 3.6 2.1 3.5
v -3.6 2.1 3.4
v -3.5 2.1 3.4
v 3.6 2.1 3.4
v 3.7 2.1 3.4
v -3.7 2.1 3.3
v -3.6 2.1 3.3
v 3.7 2.1 3.3
v 3.8 2.1 3.3
v -3.9 2.1 3.2
v -3.7 2.1 3.2
v 3.8 2.1 3.2
v 4 2.1 3.2
v -4.1 2.1 3.1
v -3.9 2.1 3.1
v 4 2.1 3.1
v 4.2 2.1 3.1
v -4.4 2.1 3
v -4.1 2.1 3
v 0 2.1 3
v 0.0999999 2.1 3
v 4.2 2.1 3
v 4.5 2.1 3
v -4.9 2.1 2.9
v -4.4 2.1 2.9
v 4.5 2.1 2.9
v 5 2.1 2.9
v -4.9 2.1 0
v -4.4 2.1 0
v -4.2 2.1 0
v -3.7 2.1 0
v -3.5 2.1 0
v -3 2.1 0
v 3.1 2.1 0
v 3.6 2.1 0
v 3.8 2.1 0
v 4.3 2.1 0
v 4.5 2.1 0
v 5 2.1 0
v -4.9 2.1 -0.0999999
v -4.4 2.1 -0.0999999
v -4.2 2.1 -0.0999999
v -3.7 2.1 -0.0999999
v -3.5 2.1 -0.0999999
v -3 2.1 -0.0999999
v 3.1 2.1 -0.0999999
v 3.6 2.1 -0.0999999
v 3.8 2.1 -0.0999999
v 4.3 2.1 -0.0999999
v 4.5 2.1 -0.0999999
v 5 2.1 -0.0999999
v -4.9 2.1 -3
v 5 2.1 -3
v -4.9 2.1 -5
v 5 2.1 -5

# faces
f 7/2/1 2/2/1 1/2/1
f 8/3/1 3/3/1 2/3/1
f 8/2/1 2/2/1 7/2/1
f 9/1/1 4/1/1 3/1/1
f 9/3/1 3/3/1 8/3/1
f 10/3/1 5/3/1 4/3/1
f 10/1/1 4/1/1 9/1/1
f 11/2/1 6/2/1 5/2/1
f 11/3/1 5/3/1 10/3/1
f 12/2/1 6/2/1 11/2/1
f 13/2/2 14/2/2 19/2/2
f 14/3/2 15/3/2 20/3/2
f 19/2/2 14/2/2 20/2/2
f 15/1/2 16/1/2 21/1/2
f 20/3/2 15/3/2 21/3/2
f 16/3/2 17/3/2 22/3/2
f 21/1/2 16/1/2 22/1/2
f 17/2/2 18/2/2 23/2/2
f 22/3/2 17/3/2 23/3/2
f 23/2/2 18/2/2 24/2/2
f 27/2/3 26/2/3 25/2/3
f 28/2/3 26/2/3 27/2/3
f 29/3/3 28/3/3 27/3/3
f 30/3/3 28/3/3 29/3/3
f 31/1/3 30/1/3 29/1/3
f 32/1/3 30/1/3 31/1/3
f 33/3/3 32/3/3 31/3/3
f 34/3/3 32/3/3 33/3/3
f 35/2/3 34/2/3 33/2/3
f 36/2/3 34/2/3 35/2/3
f 37/2/4 38/2/4 39/2/4
f 39/2/4 38/2/4 40/2/4
f 47/2/5 42/2/5 41/2/5
f 48/3/5 43/3/5 42/3/5
f 48/2/5 42/2/5 47/2/5
f 49/1/5 44/1/5 43/1/5
f 49/3/5 43/3/5 48/3/5
f 50/3/5 45/3/5 44/3/5
f 50/1/5 44/1/5 49/1/5
f 51/2/5 46/2/5 45/2/5
f 51/3/5 45/3/5 50/3/5
f 52/2/5 46/2/5 51/2/5
f 53/3/5 50/3/5 49/3/5
f 53/3/5 48/3/5 47/3/5
f 53/3/5 52/3/5 51/3/5
f 53/3/5 51/3/5 50/3/5
f 53/3/5 49/3/5 48/3/5
f 54/3/5 52/3/5 53/3/5
f 55/2/5 47/2/5 41/2/5
f 56/3/5 53/3/5 47/3/5
f 56/2/5 47/2/5 55/2/5
f 57/2/5 46/2/5 52/2/5
f 57/3/5 52/3/5 54/3/5
f 58/2/5 46/2/5 57/2/5
f 59/2/5 55/2/5 41/2/5
f 60/3/5 56/3/5 55/3/5
f 60/2/5 55/2/5 59/2/5
f 61/2/5 46/2/5 58/2/5
f 61/3/5 58/3/5 57/3/5
f 62/2/5 46/2/5 61/2/5
f 63/2/5 59/2/5 41/2/5
f 64/3/5 60/3/5 59/3/5
f 64/2/5 59/2/5 63/2/5
f 65/3/5 53/3/5 56/3/5
f 65/3/5 60/3/5 64/3/5
f 65/3/5 56/3/5 60/3/5
f 65/1/5 54/1/5 53/1/5
f 66/3/5 62/3/5 61/3/5
f 66/1/5 54/1/5 65/1/5
f 66/3/5 61/3/5 57/3/5
f 66/3/5 57/3/5 54/3/5
f 67/2/5 46/2/5 62/2/5
f 67/3/5 62/3/5 66/3/5
f 68/2/5 46/2/5 67/2/5
f 69/2/5 63/2/5 41/2/5
f 70/3/5 64/3/5 63/3/5
f 70/2/5 63/2/5 69/2/5
f 70/3/5 66/3/5 65/3/5
f 70/3/5 68/3/5 67/3/5
f 70/3/5 67/3/5 66/3/5
f 70/3/5 65/3/5 64/3/5
f 71/2/5 46/2/5 68/2/5
f 71/3/5 68/3/5 70/3/5
f 72/2/5 46/2/5 71/2/5
f 73/2/5 69/2/5 41/2/5
f 74/3/5 70/3/5 69/3/5
f 74/2/5 69/2/5 73/2/5
f 74/3/5 71/3/5 70/3/5
f 74/3/5 72/3/5 71/3/5
f 75/3/5 72/3/5 74/3/5
f 76/3/5 72/3/5 75/3/5
f 77/2/5 46/2/5 72/2/5
f 77/3/5 72/3/5 76/3/5
f 78/2/5 46/2/5 77/2/5
f 79/2/5 73/2/5 41/2/5
f 80/3/5 74/3/5 73/3/5
f 80/2/5 73/2/5 79/2/5
f 80/3/5 75/3/5 74/3/5
f 81/2/5 46/2/5 78/2/5
f 81/3/5 78/3/5 77/3/5
f 81/3/5 77/3/5 76/3/5
f 82/2/5 46/2/5 81/2/5
f 83/2/5 79/2/5 41/2/5
f 84/3/5 80/3/5 79/3/5
f 84/2/5 79/2/5 83/2/5
f 85/2/5 46/2/5 82/2/5
f 85/3/5 82/3/5 81/3/5
f 86/2/5 46/2/5 85/2/5
f 87/2/5 83/2/5 41/2/5
f 88/3/5 84/3/5 83/3/5
f 88/2/5 83/2/5 87/2/5
f 89/2/5 46/2/5 86/2/5
f 89/3/5 86/3/5 85/3/5
f 90/2/5 46/2/5 89/2/5
f 91/2/5 87/2/5 41/2/5
f 92/3/5 88/3/5 87/3/5
f 92/2/5 87/2/5 91/2/5
f 93/2/5 46/2/5 90/2/5
f 93/3/5 90/3/5 89/3/5
f 94/2/5 46/2/5 93/2/5
f 95/2/5 91/2/5 41/2/5
f 96/3/5 92/3/5 91/3/5
f 96/2/5 91/2/5 95/2/5
f 97/1/5 76/1/5 75/1/5
f 97/3/5 92/3/5 96/3/5
f 97/3/5 75/3/5 80/3/5
f 97/3/5 80/3/5 84/3/5
f 97/3/5 84/3/5 88/3/5
f 97/3/5 88/3/5 92/3/5
f 98/3/5 94/3/5 93/3/5
f 98/1/5 76/1/5 97/1/5
f 98/3/5 93/3/5 89/3/5
f 98/3/5 81/3/5 76/3/5
f 98/3/5 85/3/5 81/3/5
f 98/3/5 89/3/5 85/3/5
f 99/2/5 46/2/5 94/2/5
f 99/3/5 94/3/5 98/3/5
f 100/2/5 46/2/5 99/2/5
f 101/2/5 95/2/5 41/2/5
f 102/3/5 96/3/5 95/3/5
f 102/2/5 95/2/5 101/2/5
f 102/3/5 97/3/5 96/3/5
f 102/3/5 100/3/5 99/3/5
f 102/3/5 99/3/5 98/3/5
f 102/3/5 98/3/5 97/3/5
f 103/2/5 46/2/5 100/2/5
f 103/3/5 100/3/5 102/3/5
f 104/2/5 46/2/5 103/2/5
f 105/3/5 102/3/5 101/3/5
f 105/3/5 103/3/5 102/3/5
f 105/3/5 104/3/5 103/3/5
f 106/3/5 104/3/5 105/3/5
f 107/3/5 104/3/5 106/3/5
f 108/3/5 104/3/5 107/3/5
f 109/3/5 104/3/5 108/3/5
f 110/3/5 104/3/5 109/3/5
f 111/3/5 104/3/5 110/3/5
f 112/3/5 104/3/5 111/3/5
f 113/3/5 104/3/5 112/3/5
f 114/3/5 104/3/5 113/3/5
f 115/3/5 104/3/5 114/3/5
f 116/3/5 104/3/5 115/3/5
f 117/1/5 106/1/5 105/1/5
f 118/3/5 107/3/5 106/3/5
f 118/1/5 106/1/5 117/1/5
f 119/1/5 108/1/5 107/1/5
f 119/3/5 107/3/5 118/3/5
f 120/3/5 109/3/5 108/3/5
f 120/1/5 108/1/5 119/1/5
f 121/1/5 110/1/5 109/1/5
f 121/3/5 109/3/5 120/3/5
f 122/3/5 111/3/5 110/3/5
f 122/1/5 110/1/5 121/1/5
f 123/1/5 112/1/5 111/1/5
f 123/3/5 111/3/5 122/3/5
f 124/3/5 113/3/5 112/3/5
f 124/1/5 112/1/5 123/1/5
f 125/1/5 114/1/5 113/1/5
f 125/3/5 113/3/5 124/3/5
f 126/3/5 115/3/5 114/3/5
f 126/1/5 114/1/5 125/1/5
f 127/1/5 116/1/5 115/1/5
f 127/3/5 115/3/5 126/3/5
f 128/1/5 116/1/5 127/1/5
f 129/3/5 118/3/5 117/3/5
f 129/3/5 119/3/5 118/3/5
f 129/3/5 128/3/5 127/3/5
f 129/3/5 127/3/5 126/3/5
f 129/3/5 126/3/5 125/3/5
f 129/3/5 125/3/5 124/3/5
f 129/3/5 124/3/5 123/3/5
f 129/3/5 123/3/5 122/3/5
f 129/3/5 122/3/5 121/3/5
f 129/3/5 121/3/5 120/3/5
f 129/3/5 120/3/5 119/3/5
f 130/3/5 128/3/5 129/3/5
f 131/2/5 130/2/5 129/2/5
f 132/2/5 130/2/5 131/2/5
f 133/2/6 134/2/6 139/2/6
f 134/3/6 135/3/6 140/3/6
f 139/2/6 134/2/6 140/2/6
f 135/1/6 136/1/6 141/1/6
f 140/3/6 135/3/6 141/3/6
f 136/3/6 137/3/6 142/3/6
f 141/1/6 136/1/6 142/1/6
f 137/2/6 138/2/6 143/2/6
f 142/3/6 137/3/6 143/3/6
f 143/2/6 138/2/6 144/2/6
f 141/3/6 142/3/6 145/3/6
f 139/3/6 140/3/6 145/3/6
f 143/3/6 144/3/6 145/3/6
f 142/3/6 143/3/6 145/3/6
f 140/3/6 141/3/6 145/3/6
f 145/3/6 144/3/6 146/3/6
f 133/2/6 139/2/6 147/2/6
f 139/3/6 145/3/6 148/3/6
f 147/2/6 139/2/6 148/2/6
f 144/2/6 138/2/6 149/2/6
f 146/3/6 144/3/6 149/3/6
f 149/2/6 138/2/6 150/2/6
f 133/2/6 147/2/6 151/2/6
f 147/3/6 148/3/6 152/3/6
f 151/2/6 147/2/6 152/2/6
f 150/2/6 138/2/6 153/2/6
f 149/3/6 150/3/6 153/3/6
f 153/2/6 138/2/6 154/2/6
f 133/2/6 151/2/6 155/2/6
f 151/3/6 152/3/6 156/3/6
f 155/2/6 151/2/6 156/2/6
f 148/3/6 145/3/6 157/3/6
f 156/3/6 152/3/6 157/3/6
f 152/3/6 148/3/6 157/3/6
f 145/1/6 146/1/6 157/1/6
f 153/3/6 154/3/6 158/3/6
f 157/1/6 146/1/6 158/1/6
f 149/3/6 153/3/6 158/3/6
f 146/3/6 149/3/6 158/3/6
f 154/2/6 138/2/6 159/2/6
f 158/3/6 154/3/6 159/3/6
f 159/2/6 138/2/6 160/2/6
f 133/2/6 155/2/6 161/2/6
f 155/3/6 156/3/6 162/3/6
f 161/2/6 155/2/6 162/2/6
f 157/3/6 158/3/6 162/3/6
f 159/3/6 160/3/6 162/3/6
f 158/3/6 159/3/6 162/3/6
f 156/3/6 157/3/6 162/3/6
f 160/2/6 138/2/6 163/2/6
f 162/3/6 160/3/6 163/3/6
f 163/2/6 138/2/6 164/2/6
f 133/2/6 161/2/6 165/2/6
f 161/3/6 162/3/6 166/3/6
f 165/2/6 161/2/6 166/2/6
f 162/3/6 163/3/6 166/3/6
f 163/3/6 164/3/6 166/3/6
f 166/3/6 164/3/6 167/3/6
f 167/3/6 164/3/6 168/3/6
f 164/2/6 138/2/6 169/2/6
f 168/3/6 164/3/6 169/3/6
f 169/2/6 138/2/6 170/2/6
f 133/2/6 165/2/6 171/2/6
f 165/3/6 166/3/6 172/3/6
f 171/2/6 165/2/6 172/2/6
f 166/3/6 167/3/6 172/3/6
f 170/2/6 138/2/6 173/2/6
f 169/3/6 170/3/6 173/3/6
f 168/3/6 169/3/6 173/3/6
f 173/2/6 138/2/6 174/2/6
f 133/2/6 171/2/6 175/2/6
f 171/3/6 172/3/6 176/3/6
f 175/2/6 171/2/6 176/2/6
f 174/2/6 138/2/6 177/2/6
f 173/3/6 174/3/6 177/3/6
f 177/2/6 138/2/6 178/2/6
f 133/2/6 175/2/6 179/2/6
f 175/3/6 176/3/6 180/3/6
f 179/2/6 175/2/6 180/2/6
f 178/2/6 138/2/6 181/2/6
f 177/3/6 178/3/6 181/3/6
f 181/2/6 138/2/6 182/2/6
f 133/2/6 179/2/6 183/2/6
f 179/3/6 180/3/6 184/3/6
f 183/2/6 179/2/6 184/2/6
f 182/2/6 138/2/6 185/2/6
f 181/3/6 182/3/6 185/3/6
f 185/2/6 138/2/6 186/2/6
f 133/2/6 183/2/6 187/2/6
f 183/3/6 184/3/6 188/3/6
f 187/2/6 183/2/6 188/2/6
f 167/1/6 168/1/6 189/1/6
f 188/3/6 184/3/6 189/3/6
f 172/3/6 167/3/6 189/3/6
f 176/3/6 172/3/6 189/3/6
f 180/3/6 176/3/6 189/3/6
f 184/3/6 180/3/6 189/3/6
f 185/3/6 186/3/6 190/3/6
f 189/1/6 168/1/6 190/1/6
f 181/3/6 185/3/6 190/3/6
f 168/3/6 173/3/6 190/3/6
f 173/3/6 177/3/6 190/3/6
f 177/3/6 181/3/6 190/3/6
f 186/2/6 138/2/6 191/2/6
f 190/3/6 186/3/6 191/3/6
f 191/2/6 138/2/6 192/2/6
f 133/2/6 187/2/6 193/2/6
f 187/3/6 188/3/6 194/3/6
f 193/2/6 187/2/6 194/2/6
f 188/3/6 189/3/6 194/3/6
f 191/3/6 192/3/6 194/3/6
f 190/3/6 191/3/6 194/3/6
f 189/3/6 190/3/6 194/3/6
f 192/2/6 138/2/6 195/2/6
f 194/3/6 192/3/6 195/3/6
f 195/2/6 138/2/6 196/2/6
f 193/3/6 194/3/6 197/3/6
f 194/3/6 195/3/6 197/3/6
f 195/3/6 196/3/6 197/3/6
f 197/3/6 196/3/6 198/3/6
f 198/3/6 196/3/6 199/3/6
f 199/3/6 196/3/6 200/3/6
f 200/3/6 196/3/6 201/3/6
f 201/3/6 196/3/6 202/3/6
f 202/3/6 196/3/6 203/3/6
f 203/3/6 196/3/6 204/3/6
f 204/3/6 196/3/6 205/3/6
f 205/3/6 196/3/6 206/3/6
f 206/3/6 196/3/6 207/3/6
f 207/3/6 196/3/6 208/3/6
f 197/1/6 198/1/6 209/1/6
f 198/3/6 199/3/6 210/3/6
f 209/1/6 198/1/6 210/1/6
f 199/1/6 200/1/6 211/1/6
f 210/3/6 199/3/6 211/3/6
f 200/3/6 201/3/6 212/3/6
f 211/1/6 200/1/6 212/1/6
f 201/1/6 202/1/6 213/1/6
f 212/3/6 201/3/6 213/3/6
f 202/3/6 203/3/6 214/3/6
f 213/1/6 202/1/6 214/1/6
f 203/1/6 204/1/6 215/1/6
f 214/3/6 203/3/6 215/3/6
f 204/3/6 205/3/6 216/3/6
f 215/1/6 204/1/6 216/1/6
f 205/1/6 206/1/6 217/1/6
f 216/3/6 205/3/6 217/3/6
f 206/3/6 207/3/6 218/3/6
f 217/1/6 206/1/6 218/1/6
f 207/1/6 208/1/6 219/1/6
f 218/3/6 207/3/6 219/3/6
f 219/1/6 208/1/6 220/1/6
f 209/3/6 210/3/6 221/3/6
f 210/3/6 211/3/6 221/3/6
f 219/3/6 220/3/6 221/3/6
f 218/3/6 219/3/6 221/3/6
f 217/3/6 218/3/6 221/3/6
f 216/3/6 217/3/6 221/3/6
f 215/3/6 216/3/6 221/3/6
f 214/3/6 215/3/6 221/3/6
f 213/3/6 214/3/6 221/3/6
f 212/3/6 213/3/6 221/3/6
f 211/3/6 212/3/6 221/3/6
f 221/3/6 220/3/6 222/3/6
f 221/2/6 222/2/6 223/2/6
f 223/2/6 222/2/6 224/2/6
