# MagicaVoxel @ Ephtracy

# group
o 

# material
mtllib road1.1.mtl
usemtl palette

# normals
vn -1 0 0
vn 1 0 0
vn 0 0 1
vn 0 0 -1
vn 0 -1 0
vn 0 1 0

# texcoords
vt 0.958984 0.5
vt 0.986328 0.5
vt 0.994141 0.5

# verts
v -4.9 2 4.9
v -4.9 2 2.9
v -4.9 2 0
v -4.9 2 -0.0999999
v -4.9 2 -3
v -4.9 2 -5
v -4.9 2.1 4.9
v -4.9 2.1 2.9
v -4.9 2.1 0
v -4.9 2.1 -0.0999999
v -4.9 2.1 -3
v -4.9 2.1 -5
v 5 2 4.9
v 5 2 -5
v 5 2.1 4.9
v 5 2.1 -5
v -4.9 2 4.9
v -4.9 2.1 4.9
v 5 2 4.9
v 5 2.1 4.9
v -4.9 2 -5
v -4.9 2.1 -5
v -2.9 2 -5
v -2.9 2.1 -5
v 0 2 -5
v 0 2.1 -5
v 0.0999999 2 -5
v 0.0999999 2.1 -5
v 3 2 -5
v 3 2.1 -5
v 5 2 -5
v 5 2.1 -5
v -4.9 2 4.9
v 5 2 4.9
v -4.9 2 2.9
v 1.6 2 2.9
v 1.6 2 2.8
v 1.9 2 2.8
v 1.9 2 2.7
v 2.1 2 2.7
v 2.1 2 2.6
v 2.3 2 2.6
v 2.3 2 2.5
v 2.4 2 2.5
v 2.4 2 2.4
v 2.5 2 2.4
v 2.5 2 2.3
v 2.6 2 2.3
v 2.6 2 2.2
v 2.7 2 2.2
v 2.7 2 2.1
v 2.8 2 2.1
v 2.8 2 1.9
v 2.9 2 1.9
v 2.9 2 1.6
v 3 2 1.6
v -4.9 2 0
v -4.3 2 0
v -4.2 2 0
v -3.7 2 0
v -3.6 2 0
v -3.1 2 0
v -3 2 0
v -2.5 2 0
v -2.4 2 0
v -1.9 2 0
v -1.8 2 0
v -1.5 2 0
v -4.9 2 -0.0999999
v -4.3 2 -0.0999999
v -4.2 2 -0.0999999
v -3.7 2 -0.0999999
v -3.6 2 -0.0999999
v -3.1 2 -0.0999999
v -3 2 -0.0999999
v -2.5 2 -0.0999999
v -2.4 2 -0.0999999
v -1.9 2 -0.0999999
v -1.8 2 -0.0999999
v -1.5 2 -0.0999999
v -1.2 2 -0.0999999
v -1.5 2 -0.2
v -1.2 2 -0.2
v -1 2 -0.2
v -1.2 2 -0.3
v -1 2 -0.3
v -0.8 2 -0.3
v -1 2 -0.4
v -0.8 2 -0.4
v -0.7 2 -0.4
v -0.8 2 -0.5
v -0.7 2 -0.5
v -0.6 2 -0.5
v -0.7 2 -0.6
v -0.6 2 -0.6
v -0.5 2 -0.6
v -0.6 2 -0.7
v -0.5 2 -0.7
v -0.4 2 -0.7
v -0.5 2 -0.8
v -0.4 2 -0.8
v -0.3 2 -0.8
v -0.4 2 -0.9
v -0.3 2 -0.9
v -0.2 2 -0.9
v -0.3 2 -1
v -0.2 2 -1
v -0.0999999 2 -1
v -0.2 2 -1.2
v -0.0999999 2 -1.2
v 0 2 -1.2
v -0.0999999 2 -1.5
v 0 2 -1.5
v 0.0999999 2 -1.5
v 0 2 -1.8
v 0.0999999 2 -1.8
v 0 2 -1.9
v 0.0999999 2 -1.9
v 0 2 -2.4
v 0.0999999 2 -2.4
v 0 2 -2.5
v 0.0999999 2 -2.5
v -4.9 2 -3
v -4.4 2 -3
v 0 2 -3
v 0.0999999 2 -3
v -4.4 2 -3.1
v -4.1 2 -3.1
v 0 2 -3.1
v 0.0999999 2 -3.1
v -4.1 2 -3.2
v -3.9 2 -3.2
v -3.9 2 -3.3
v -3.7 2 -3.3
v -3.7 2 -3.4
v -3.6 2 -3.4
v -3.6 2 -3.5
v -3.5 2 -3.5
v -3.5 2 -3.6
v -3.4 2 -3.6
v 0 2 -3.6
v 0.0999999 2 -3.6
v -3.4 2 -3.7
v -3.3 2 -3.7
v 0 2 -3.7
v 0.0999999 2 -3.7
v -3.3 2 -3.8
v -3.2 2 -3.8
v -3.2 2 -4
v -3.1 2 -4
v -3.1 2 -4.2
v -3 2 -4.2
v 0 2 -4.3
v 0.0999999 2 -4.3
v 0 2 -4.4
v 0.0999999 2 -4.4
v -3 2 -4.5
v -2.9 2 -4.5
v -4.9 2 -5
v -2.9 2 -5
v 0 2 -5
v 0.0999999 2 -5
v 3 2 -5
v 5 2 -5
v -4.9 2.1 4.9
v 5 2.1 4.9
v -4.9 2.1 2.9
v 1.6 2.1 2.9
v 1.6 2.1 2.8
v 1.9 2.1 2.8
v 1.9 2.1 2.7
v 2.1 2.1 2.7
v 2.1 2.1 2.6
v 2.3 2.1 2.6
v 2.3 2.1 2.5
v 2.4 2.1 2.5
v 2.4 2.1 2.4
v 2.5 2.1 2.4
v 2.5 2.1 2.3
v 2.6 2.1 2.3
v 2.6 2.1 2.2
v 2.7 2.1 2.2
v 2.7 2.1 2.1
v 2.8 2.1 2.1
v 2.8 2.1 1.9
v 2.9 2.1 1.9
v 2.9 2.1 1.6
v 3 2.1 1.6
v -4.9 2.1 0
v -4.3 2.1 0
v -4.2 2.1 0
v -3.7 2.1 0
v -3.6 2.1 0
v -3.1 2.1 0
v -3 2.1 0
v -2.5 2.1 0
v -2.4 2.1 0
v -1.9 2.1 0
v -1.8 2.1 0
v -1.5 2.1 0
v -4.9 2.1 -0.0999999
v -4.3 2.1 -0.0999999
v -4.2 2.1 -0.0999999
v -3.7 2.1 -0.0999999
v -3.6 2.1 -0.0999999
v -3.1 2.1 -0.0999999
v -3 2.1 -0.0999999
v -2.5 2.1 -0.0999999
v -2.4 2.1 -0.0999999
v -1.9 2.1 -0.0999999
v -1.8 2.1 -0.0999999
v -1.5 2.1 -0.0999999
v -1.2 2.1 -0.0999999
v -1.5 2.1 -0.2
v -1.2 2.1 -0.2
v -1 2.1 -0.2
v -1.2 2.1 -0.3
v -1 2.1 -0.3
v -0.8 2.1 -0.3
v -1 2.1 -0.4
v -0.8 2.1 -0.4
v -0.7 2.1 -0.4
v -0.8 2.1 -0.5
v -0.7 2.1 -0.5
v -0.6 2.1 -0.5
v -0.7 2.1 -0.6
v -0.6 2.1 -0.6
v -0.5 2.1 -0.6
v -0.6 2.1 -0.7
v -0.5 2.1 -0.7
v -0.4 2.1 -0.7
v -0.5 2.1 -0.8
v -0.4 2.1 -0.8
v -0.3 2.1 -0.8
v -0.4 2.1 -0.9
v -0.3 2.1 -0.9
v -0.2 2.1 -0.9
v -0.3 2.1 -1
v -0.2 2.1 -1
v -0.0999999 2.1 -1
v -0.2 2.1 -1.2
v -0.0999999 2.1 -1.2
v 0 2.1 -1.2
v -0.0999999 2.1 -1.5
v 0 2.1 -1.5
v 0.0999999 2.1 -1.5
v 0 2.1 -1.8
v 0.0999999 2.1 -1.8
v 0 2.1 -1.9
v 0.0999999 2.1 -1.9
v 0 2.1 -2.4
v 0.0999999 2.1 -2.4
v 0 2.1 -2.5
v 0.0999999 2.1 -2.5
v -4.9 2.1 -3
v -4.4 2.1 -3
v 0 2.1 -3
v 0.0999999 2.1 -3
v -4.4 2.1 -3.1
v -4.1 2.1 -3.1
v 0 2.1 -3.1
v 0.0999999 2.1 -3.1
v -4.1 2.1 -3.2
v -3.9 2.1 -3.2
v -3.9 2.1 -3.3
v -3.7 2.1 -3.3
v -3.7 2.1 -3.4
v -3.6 2.1 -3.4
v -3.6 2.1 -3.5
v -3.5 2.1 -3.5
v -3.5 2.1 -3.6
v -3.4 2.1 -3.6
v 0 2.1 -3.6
v 0.0999999 2.1 -3.6
v -3.4 2.1 -3.7
v -3.3 2.1 -3.7
v 0 2.1 -3.7
v 0.0999999 2.1 -3.7
v -3.3 2.1 -3.8
v -3.2 2.1 -3.8
v -3.2 2.1 -4
v -3.1 2.1 -4
v -3.1 2.1 -4.2
v -3 2.1 -4.2
v 0 2.1 -4.3
v 0.0999999 2.1 -4.3
v 0 2.1 -4.4
v 0.0999999 2.1 -4.4
v -3 2.1 -4.5
v -2.9 2.1 -4.5
v -4.9 2.1 -5
v -2.9 2.1 -5
v 0 2.1 -5
v 0.0999999 2.1 -5
v 3 2.1 -5
v 5 2.1 -5

# faces
f 7/2/1 2/2/1 1/2/1
f 8/3/1 3/3/1 2/3/1
f 8/2/1 2/2/1 7/2/1
f 9/1/1 4/1/1 3/1/1
f 9/3/1 3/3/1 8/3/1
f 10/3/1 5/3/1 4/3/1
f 10/1/1 4/1/1 9/1/1
f 11/2/1 6/2/1 5/2/1
f 11/3/1 5/3/1 10/3/1
f 12/2/1 6/2/1 11/2/1
f 13/2/2 14/2/2 15/2/2
f 15/2/2 14/2/2 16/2/2
f 19/2/3 18/2/3 17/2/3
f 20/2/3 18/2/3 19/2/3
f 21/2/4 22/2/4 23/2/4
f 23/2/4 22/2/4 24/2/4
f 23/3/4 24/3/4 25/3/4
f 25/3/4 24/3/4 26/3/4
f 25/1/4 26/1/4 27/1/4
f 27/1/4 26/1/4 28/1/4
f 27/3/4 28/3/4 29/3/4
f 29/3/4 28/3/4 30/3/4
f 29/2/4 30/2/4 31/2/4
f 31/2/4 30/2/4 32/2/4
f 35/2/5 34/2/5 33/2/5
f 36/2/5 34/2/5 35/2/5
f 37/3/5 36/3/5 35/3/5
f 37/2/5 34/2/5 36/2/5
f 38/2/5 34/2/5 37/2/5
f 39/3/5 38/3/5 37/3/5
f 39/2/5 34/2/5 38/2/5
f 40/2/5 34/2/5 39/2/5
f 41/3/5 40/3/5 39/3/5
f 41/2/5 34/2/5 40/2/5
f 42/2/5 34/2/5 41/2/5
f 43/3/5 42/3/5 41/3/5
f 43/2/5 34/2/5 42/2/5
f 44/2/5 34/2/5 43/2/5
f 45/3/5 44/3/5 43/3/5
f 45/2/5 34/2/5 44/2/5
f 46/2/5 34/2/5 45/2/5
f 47/3/5 46/3/5 45/3/5
f 47/2/5 34/2/5 46/2/5
f 48/2/5 34/2/5 47/2/5
f 49/3/5 48/3/5 47/3/5
f 49/2/5 34/2/5 48/2/5
f 50/2/5 34/2/5 49/2/5
f 51/3/5 50/3/5 49/3/5
f 51/2/5 34/2/5 50/2/5
f 52/2/5 34/2/5 51/2/5
f 53/3/5 52/3/5 51/3/5
f 53/2/5 34/2/5 52/2/5
f 54/2/5 34/2/5 53/2/5
f 55/3/5 54/3/5 53/3/5
f 55/2/5 34/2/5 54/2/5
f 56/2/5 34/2/5 55/2/5
f 57/3/5 37/3/5 35/3/5
f 57/3/5 39/3/5 37/3/5
f 57/3/5 56/3/5 55/3/5
f 57/3/5 55/3/5 53/3/5
f 57/3/5 53/3/5 51/3/5
f 57/3/5 51/3/5 49/3/5
f 57/3/5 49/3/5 47/3/5
f 57/3/5 47/3/5 45/3/5
f 57/3/5 45/3/5 43/3/5
f 57/3/5 43/3/5 41/3/5
f 57/3/5 41/3/5 39/3/5
f 58/3/5 56/3/5 57/3/5
f 59/3/5 56/3/5 58/3/5
f 60/3/5 56/3/5 59/3/5
f 61/3/5 56/3/5 60/3/5
f 62/3/5 56/3/5 61/3/5
f 63/3/5 56/3/5 62/3/5
f 64/3/5 56/3/5 63/3/5
f 65/3/5 56/3/5 64/3/5
f 66/3/5 56/3/5 65/3/5
f 67/3/5 56/3/5 66/3/5
f 68/3/5 56/3/5 67/3/5
f 69/1/5 58/1/5 57/1/5
f 70/3/5 59/3/5 58/3/5
f 70/1/5 58/1/5 69/1/5
f 71/1/5 60/1/5 59/1/5
f 71/3/5 59/3/5 70/3/5
f 72/3/5 61/3/5 60/3/5
f 72/1/5 60/1/5 71/1/5
f 73/1/5 62/1/5 61/1/5
f 73/3/5 61/3/5 72/3/5
f 74/3/5 63/3/5 62/3/5
f 74/1/5 62/1/5 73/1/5
f 75/1/5 64/1/5 63/1/5
f 75/3/5 63/3/5 74/3/5
f 76/3/5 65/3/5 64/3/5
f 76/1/5 64/1/5 75/1/5
f 77/1/5 66/1/5 65/1/5
f 77/3/5 65/3/5 76/3/5
f 78/3/5 67/3/5 66/3/5
f 78/1/5 66/1/5 77/1/5
f 79/1/5 68/1/5 67/1/5
f 79/3/5 67/3/5 78/3/5
f 80/3/5 56/3/5 68/3/5
f 80/1/5 68/1/5 79/1/5
f 81/3/5 56/3/5 80/3/5
f 82/3/5 79/3/5 78/3/5
f 82/3/5 70/3/5 69/3/5
f 82/1/5 81/1/5 80/1/5
f 82/3/5 80/3/5 79/3/5
f 82/3/5 78/3/5 77/3/5
f 82/3/5 77/3/5 76/3/5
f 82/3/5 76/3/5 75/3/5
f 82/3/5 75/3/5 74/3/5
f 82/3/5 74/3/5 73/3/5
f 82/3/5 73/3/5 72/3/5
f 82/3/5 72/3/5 71/3/5
f 82/3/5 71/3/5 70/3/5
f 83/3/5 56/3/5 81/3/5
f 83/1/5 81/1/5 82/1/5
f 84/3/5 56/3/5 83/3/5
f 85/3/5 83/3/5 82/3/5
f 85/1/5 84/1/5 83/1/5
f 86/3/5 56/3/5 84/3/5
f 86/1/5 84/1/5 85/1/5
f 87/3/5 56/3/5 86/3/5
f 88/3/5 86/3/5 85/3/5
f 88/1/5 87/1/5 86/1/5
f 89/3/5 56/3/5 87/3/5
f 89/1/5 87/1/5 88/1/5
f 90/3/5 56/3/5 89/3/5
f 91/3/5 89/3/5 88/3/5
f 91/1/5 90/1/5 89/1/5
f 92/3/5 56/3/5 90/3/5
f 92/1/5 90/1/5 91/1/5
f 93/3/5 56/3/5 92/3/5
f 94/3/5 92/3/5 91/3/5
f 94/1/5 93/1/5 92/1/5
f 95/3/5 56/3/5 93/3/5
f 95/1/5 93/1/5 94/1/5
f 96/3/5 56/3/5 95/3/5
f 97/3/5 95/3/5 94/3/5
f 97/1/5 96/1/5 95/1/5
f 98/3/5 56/3/5 96/3/5
f 98/1/5 96/1/5 97/1/5
f 99/3/5 56/3/5 98/3/5
f 100/3/5 98/3/5 97/3/5
f 100/1/5 99/1/5 98/1/5
f 101/3/5 56/3/5 99/3/5
f 101/1/5 99/1/5 100/1/5
f 102/3/5 56/3/5 101/3/5
f 103/3/5 101/3/5 100/3/5
f 103/1/5 102/1/5 101/1/5
f 104/3/5 56/3/5 102/3/5
f 104/1/5 102/1/5 103/1/5
f 105/3/5 56/3/5 104/3/5
f 106/3/5 104/3/5 103/3/5
f 106/1/5 105/1/5 104/1/5
f 107/3/5 56/3/5 105/3/5
f 107/1/5 105/1/5 106/1/5
f 108/3/5 56/3/5 107/3/5
f 109/3/5 107/3/5 106/3/5
f 109/1/5 108/1/5 107/1/5
f 110/3/5 56/3/5 108/3/5
f 110/1/5 108/1/5 109/1/5
f 111/3/5 56/3/5 110/3/5
f 112/3/5 110/3/5 109/3/5
f 112/1/5 111/1/5 110/1/5
f 113/3/5 56/3/5 111/3/5
f 113/1/5 111/1/5 112/1/5
f 114/3/5 56/3/5 113/3/5
f 115/3/5 113/3/5 112/3/5
f 115/1/5 114/1/5 113/1/5
f 116/3/5 56/3/5 114/3/5
f 116/1/5 114/1/5 115/1/5
f 117/3/5 115/3/5 112/3/5
f 117/3/5 116/3/5 115/3/5
f 118/3/5 56/3/5 116/3/5
f 118/3/5 116/3/5 117/3/5
f 119/3/5 117/3/5 112/3/5
f 119/1/5 118/1/5 117/1/5
f 120/3/5 56/3/5 118/3/5
f 120/1/5 118/1/5 119/1/5
f 121/3/5 119/3/5 112/3/5
f 121/3/5 120/3/5 119/3/5
f 122/3/5 56/3/5 120/3/5
f 122/3/5 120/3/5 121/3/5
f 123/3/5 82/3/5 69/3/5
f 123/3/5 85/3/5 82/3/5
f 123/3/5 88/3/5 85/3/5
f 123/3/5 121/3/5 112/3/5
f 123/3/5 112/3/5 109/3/5
f 123/3/5 109/3/5 106/3/5
f 123/3/5 106/3/5 103/3/5
f 123/3/5 103/3/5 100/3/5
f 123/3/5 100/3/5 97/3/5
f 123/3/5 97/3/5 94/3/5
f 123/3/5 94/3/5 91/3/5
f 123/3/5 91/3/5 88/3/5
f 124/3/5 121/3/5 123/3/5
f 125/1/5 122/1/5 121/1/5
f 125/3/5 121/3/5 124/3/5
f 126/3/5 56/3/5 122/3/5
f 126/1/5 122/1/5 125/1/5
f 127/3/5 125/3/5 124/3/5
f 127/2/5 124/2/5 123/2/5
f 127/3/5 126/3/5 125/3/5
f 128/3/5 126/3/5 127/3/5
f 129/3/5 126/3/5 128/3/5
f 130/3/5 56/3/5 126/3/5
f 130/3/5 126/3/5 129/3/5
f 131/3/5 129/3/5 128/3/5
f 131/2/5 128/2/5 127/2/5
f 132/3/5 129/3/5 131/3/5
f 133/2/5 132/2/5 131/2/5
f 133/3/5 129/3/5 132/3/5
f 134/3/5 129/3/5 133/3/5
f 135/2/5 134/2/5 133/2/5
f 135/3/5 129/3/5 134/3/5
f 136/3/5 129/3/5 135/3/5
f 137/2/5 136/2/5 135/2/5
f 137/3/5 129/3/5 136/3/5
f 138/3/5 129/3/5 137/3/5
f 139/2/5 138/2/5 137/2/5
f 139/3/5 129/3/5 138/3/5
f 140/3/5 129/3/5 139/3/5
f 141/1/5 130/1/5 129/1/5
f 141/3/5 129/3/5 140/3/5
f 142/3/5 56/3/5 130/3/5
f 142/1/5 130/1/5 141/1/5
f 143/3/5 141/3/5 140/3/5
f 143/2/5 140/2/5 139/2/5
f 143/3/5 142/3/5 141/3/5
f 144/3/5 142/3/5 143/3/5
f 145/3/5 142/3/5 144/3/5
f 146/3/5 56/3/5 142/3/5
f 146/3/5 142/3/5 145/3/5
f 147/3/5 145/3/5 144/3/5
f 147/2/5 144/2/5 143/2/5
f 148/3/5 145/3/5 147/3/5
f 149/2/5 148/2/5 147/2/5
f 149/3/5 145/3/5 148/3/5
f 150/3/5 145/3/5 149/3/5
f 151/2/5 150/2/5 149/2/5
f 151/3/5 145/3/5 150/3/5
f 152/3/5 145/3/5 151/3/5
f 153/1/5 146/1/5 145/1/5
f 153/3/5 145/3/5 152/3/5
f 154/3/5 56/3/5 146/3/5
f 154/1/5 146/1/5 153/1/5
f 155/3/5 153/3/5 152/3/5
f 155/3/5 154/3/5 153/3/5
f 156/3/5 56/3/5 154/3/5
f 156/3/5 154/3/5 155/3/5
f 157/3/5 155/3/5 152/3/5
f 157/2/5 152/2/5 151/2/5
f 158/3/5 155/3/5 157/3/5
f 159/2/5 127/2/5 123/2/5
f 159/2/5 139/2/5 137/2/5
f 159/2/5 158/2/5 157/2/5
f 159/2/5 157/2/5 151/2/5
f 159/2/5 151/2/5 149/2/5
f 159/2/5 149/2/5 147/2/5
f 159/2/5 147/2/5 143/2/5
f 159/2/5 131/2/5 127/2/5
f 159/2/5 143/2/5 139/2/5
f 159/2/5 137/2/5 135/2/5
f 159/2/5 135/2/5 133/2/5
f 159/2/5 133/2/5 131/2/5
f 160/3/5 155/3/5 158/3/5
f 160/2/5 158/2/5 159/2/5
f 161/1/5 156/1/5 155/1/5
f 161/3/5 155/3/5 160/3/5
f 162/3/5 56/3/5 156/3/5
f 162/1/5 156/1/5 161/1/5
f 163/2/5 34/2/5 56/2/5
f 163/3/5 56/3/5 162/3/5
f 164/2/5 34/2/5 163/2/5
f 165/2/6 166/2/6 167/2/6
f 167/2/6 166/2/6 168/2/6
f 167/3/6 168/3/6 169/3/6
f 168/2/6 166/2/6 169/2/6
f 169/2/6 166/2/6 170/2/6
f 169/3/6 170/3/6 171/3/6
f 170/2/6 166/2/6 171/2/6
f 171/2/6 166/2/6 172/2/6
f 171/3/6 172/3/6 173/3/6
f 172/2/6 166/2/6 173/2/6
f 173/2/6 166/2/6 174/2/6
f 173/3/6 174/3/6 175/3/6
f 174/2/6 166/2/6 175/2/6
f 175/2/6 166/2/6 176/2/6
f 175/3/6 176/3/6 177/3/6
f 176/2/6 166/2/6 177/2/6
f 177/2/6 166/2/6 178/2/6
f 177/3/6 178/3/6 179/3/6
f 178/2/6 166/2/6 179/2/6
f 179/2/6 166/2/6 180/2/6
f 179/3/6 180/3/6 181/3/6
f 180/2/6 166/2/6 181/2/6
f 181/2/6 166/2/6 182/2/6
f 181/3/6 182/3/6 183/3/6
f 182/2/6 166/2/6 183/2/6
f 183/2/6 166/2/6 184/2/6
f 183/3/6 184/3/6 185/3/6
f 184/2/6 166/2/6 185/2/6
f 185/2/6 166/2/6 186/2/6
f 185/3/6 186/3/6 187/3/6
f 186/2/6 166/2/6 187/2/6
f 187/2/6 166/2/6 188/2/6
f 167/3/6 169/3/6 189/3/6
f 169/3/6 171/3/6 189/3/6
f 187/3/6 188/3/6 189/3/6
f 185/3/6 187/3/6 189/3/6
f 183/3/6 185/3/6 189/3/6
f 181/3/6 183/3/6 189/3/6
f 179/3/6 181/3/6 189/3/6
f 177/3/6 179/3/6 189/3/6
f 175/3/6 177/3/6 189/3/6
f 173/3/6 175/3/6 189/3/6
f 171/3/6 173/3/6 189/3/6
f 189/3/6 188/3/6 190/3/6
f 190/3/6 188/3/6 191/3/6
f 191/3/6 188/3/6 192/3/6
f 192/3/6 188/3/6 193/3/6
f 193/3/6 188/3/6 194/3/6
f 194/3/6 188/3/6 195/3/6
f 195/3/6 188/3/6 196/3/6
f 196/3/6 188/3/6 197/3/6
f 197/3/6 188/3/6 198/3/6
f 198/3/6 188/3/6 199/3/6
f 199/3/6 188/3/6 200/3/6
f 189/1/6 190/1/6 201/1/6
f 190/3/6 191/3/6 202/3/6
f 201/1/6 190/1/6 202/1/6
f 191/1/6 192/1/6 203/1/6
f 202/3/6 191/3/6 203/3/6
f 192/3/6 193/3/6 204/3/6
f 203/1/6 192/1/6 204/1/6
f 193/1/6 194/1/6 205/1/6
f 204/3/6 193/3/6 205/3/6
f 194/3/6 195/3/6 206/3/6
f 205/1/6 194/1/6 206/1/6
f 195/1/6 196/1/6 207/1/6
f 206/3/6 195/3/6 207/3/6
f 196/3/6 197/3/6 208/3/6
f 207/1/6 196/1/6 208/1/6
f 197/1/6 198/1/6 209/1/6
f 208/3/6 197/3/6 209/3/6
f 198/3/6 199/3/6 210/3/6
f 209/1/6 198/1/6 210/1/6
f 199/1/6 200/1/6 211/1/6
f 210/3/6 199/3/6 211/3/6
f 200/3/6 188/3/6 212/3/6
f 211/1/6 200/1/6 212/1/6
f 212/3/6 188/3/6 213/3/6
f 210/3/6 211/3/6 214/3/6
f 201/3/6 202/3/6 214/3/6
f 212/1/6 213/1/6 214/1/6
f 211/3/6 212/3/6 214/3/6
f 209/3/6 210/3/6 214/3/6
f 208/3/6 209/3/6 214/3/6
f 207/3/6 208/3/6 214/3/6
f 206/3/6 207/3/6 214/3/6
f 205/3/6 206/3/6 214/3/6
f 204/3/6 205/3/6 214/3/6
f 203/3/6 204/3/6 214/3/6
f 202/3/6 203/3/6 214/3/6
f 213/3/6 188/3/6 215/3/6
f 214/1/6 213/1/6 215/1/6
f 215/3/6 188/3/6 216/3/6
f 214/3/6 215/3/6 217/3/6
f 215/1/6 216/1/6 217/1/6
f 216/3/6 188/3/6 218/3/6
f 217/1/6 216/1/6 218/1/6
f 218/3/6 188/3/6 219/3/6
f 217/3/6 218/3/6 220/3/6
f 218/1/6 219/1/6 220/1/6
f 219/3/6 188/3/6 221/3/6
f 220/1/6 219/1/6 221/1/6
f 221/3/6 188/3/6 222/3/6
f 220/3/6 221/3/6 223/3/6
f 221/1/6 222/1/6 223/1/6
f 222/3/6 188/3/6 224/3/6
f 223/1/6 222/1/6 224/1/6
f 224/3/6 188/3/6 225/3/6
f 223/3/6 224/3/6 226/3/6
f 224/1/6 225/1/6 226/1/6
f 225/3/6 188/3/6 227/3/6
f 226/1/6 225/1/6 227/1/6
f 227/3/6 188/3/6 228/3/6
f 226/3/6 227/3/6 229/3/6
f 227/1/6 228/1/6 229/1/6
f 228/3/6 188/3/6 230/3/6
f 229/1/6 228/1/6 230/1/6
f 230/3/6 188/3/6 231/3/6
f 229/3/6 230/3/6 232/3/6
f 230/1/6 231/1/6 232/1/6
f 231/3/6 188/3/6 233/3/6
f 232/1/6 231/1/6 233/1/6
f 233/3/6 188/3/6 234/3/6
f 232/3/6 233/3/6 235/3/6
f 233/1/6 234/1/6 235/1/6
f 234/3/6 188/3/6 236/3/6
f 235/1/6 234/1/6 236/1/6
f 236/3/6 188/3/6 237/3/6
f 235/3/6 236/3/6 238/3/6
f 236/1/6 237/1/6 238/1/6
f 237/3/6 188/3/6 239/3/6
f 238/1/6 237/1/6 239/1/6
f 239/3/6 188/3/6 240/3/6
f 238/3/6 239/3/6 241/3/6
f 239/1/6 240/1/6 241/1/6
f 240/3/6 188/3/6 242/3/6
f 241/1/6 240/1/6 242/1/6
f 242/3/6 188/3/6 243/3/6
f 241/3/6 242/3/6 244/3/6
f 242/1/6 243/1/6 244/1/6
f 243/3/6 188/3/6 245/3/6
f 244/1/6 243/1/6 245/1/6
f 245/3/6 188/3/6 246/3/6
f 244/3/6 245/3/6 247/3/6
f 245/1/6 246/1/6 247/1/6
f 246/3/6 188/3/6 248/3/6
f 247/1/6 246/1/6 248/1/6
f 244/3/6 247/3/6 249/3/6
f 247/3/6 248/3/6 249/3/6
f 248/3/6 188/3/6 250/3/6
f 249/3/6 248/3/6 250/3/6
f 244/3/6 249/3/6 251/3/6
f 249/1/6 250/1/6 251/1/6
f 250/3/6 188/3/6 252/3/6
f 251/1/6 250/1/6 252/1/6
f 244/3/6 251/3/6 253/3/6
f 251/3/6 252/3/6 253/3/6
f 252/3/6 188/3/6 254/3/6
f 253/3/6 252/3/6 254/3/6
f 201/3/6 214/3/6 255/3/6
f 214/3/6 217/3/6 255/3/6
f 217/3/6 220/3/6 255/3/6
f 244/3/6 253/3/6 255/3/6
f 241/3/6 244/3/6 255/3/6
f 238/3/6 241/3/6 255/3/6
f 235/3/6 238/3/6 255/3/6
f 232/3/6 235/3/6 255/3/6
f 229/3/6 232/3/6 255/3/6
f 226/3/6 229/3/6 255/3/6
f 223/3/6 226/3/6 255/3/6
f 220/3/6 223/3/6 255/3/6
f 255/3/6 253/3/6 256/3/6
f 253/1/6 254/1/6 257/1/6
f 256/3/6 253/3/6 257/3/6
f 254/3/6 188/3/6 258/3/6
f 257/1/6 254/1/6 258/1/6
f 256/3/6 257/3/6 259/3/6
f 255/2/6 256/2/6 259/2/6
f 257/3/6 258/3/6 259/3/6
f 259/3/6 258/3/6 260/3/6
f 260/3/6 258/3/6 261/3/6
f 258/3/6 188/3/6 262/3/6
f 261/3/6 258/3/6 262/3/6
f 260/3/6 261/3/6 263/3/6
f 259/2/6 260/2/6 263/2/6
f 263/3/6 261/3/6 264/3/6
f 263/2/6 264/2/6 265/2/6
f 264/3/6 261/3/6 265/3/6
f 265/3/6 261/3/6 266/3/6
f 265/2/6 266/2/6 267/2/6
f 266/3/6 261/3/6 267/3/6
f 267/3/6 261/3/6 268/3/6
f 267/2/6 268/2/6 269/2/6
f 268/3/6 261/3/6 269/3/6
f 269/3/6 261/3/6 270/3/6
f 269/2/6 270/2/6 271/2/6
f 270/3/6 261/3/6 271/3/6
f 271/3/6 261/3/6 272/3/6
f 261/1/6 262/1/6 273/1/6
f 272/3/6 261/3/6 273/3/6
f 262/3/6 188/3/6 274/3/6
f 273/1/6 262/1/6 274/1/6
f 272/3/6 273/3/6 275/3/6
f 271/2/6 272/2/6 275/2/6
f 273/3/6 274/3/6 275/3/6
f 275/3/6 274/3/6 276/3/6
f 276/3/6 274/3/6 277/3/6
f 274/3/6 188/3/6 278/3/6
f 277/3/6 274/3/6 278/3/6
f 276/3/6 277/3/6 279/3/6
f 275/2/6 276/2/6 279/2/6
f 279/3/6 277/3/6 280/3/6
f 279/2/6 280/2/6 281/2/6
f 280/3/6 277/3/6 281/3/6
f 281/3/6 277/3/6 282/3/6
f 281/2/6 282/2/6 283/2/6
f 282/3/6 277/3/6 283/3/6
f 283/3/6 277/3/6 284/3/6
f 277/1/6 278/1/6 285/1/6
f 284/3/6 277/3/6 285/3/6
f 278/3/6 188/3/6 286/3/6
f 285/1/6 278/1/6 286/1/6
f 284/3/6 285/3/6 287/3/6
f 285/3/6 286/3/6 287/3/6
f 286/3/6 188/3/6 288/3/6
f 287/3/6 286/3/6 288/3/6
f 284/3/6 287/3/6 289/3/6
f 283/2/6 284/2/6 289/2/6
f 289/3/6 287/3/6 290/3/6
f 255/2/6 259/2/6 291/2/6
f 269/2/6 271/2/6 291/2/6
f 289/2/6 290/2/6 291/2/6
f 283/2/6 289/2/6 291/2/6
f 281/2/6 283/2/6 291/2/6
f 279/2/6 281/2/6 291/2/6
f 275/2/6 279/2/6 291/2/6
f 259/2/6 263/2/6 291/2/6
f 271/2/6 275/2/6 291/2/6
f 267/2/6 269/2/6 291/2/6
f 265/2/6 267/2/6 291/2/6
f 263/2/6 265/2/6 291/2/6
f 290/3/6 287/3/6 292/3/6
f 291/2/6 290/2/6 292/2/6
f 287/1/6 288/1/6 293/1/6
f 292/3/6 287/3/6 293/3/6
f 288/3/6 188/3/6 294/3/6
f 293/1/6 288/1/6 294/1/6
f 188/2/6 166/2/6 295/2/6
f 294/3/6 188/3/6 295/3/6
f 295/2/6 166/2/6 296/2/6
