# MagicaVoxel @ Ephtracy

# group
o 

# material
mtllib road7.mtl
usemtl palette

# normals
vn -1 0 0
vn 1 0 0
vn 0 0 1
vn 0 0 -1
vn 0 -1 0
vn 0 1 0

# texcoords
vt 0.537109 0.5
vt 0.958984 0.5
vt 0.974609 0.5
vt 0.986328 0.5
vt 0.990234 0.5
vt 0.994141 0.5

# verts
v -4.9 2 4.9
v -4.9 2 2.9
v -4.9 2 0.0999999
v -4.9 2 0
v -4.9 2 -0.0999999
v -4.9 2 -0.2
v -4.9 2 -3
v -4.9 2 -5
v -4.9 2.1 4.9
v -4.9 2.1 2.9
v -4.9 2.1 0.0999999
v -4.9 2.1 0
v -4.9 2.1 -0.0999999
v -4.9 2.1 -0.2
v -4.9 2.1 -3
v -4.9 2.1 -5
v -3.5 2.1 4.9
v -3.5 2.1 2.9
v -3.5 2.1 0.0999999
v -3.5 2.1 0
v -3.5 2.1 -0.0999999
v -3.5 2.1 -0.2
v -3.5 2.1 -3
v -3.5 2.1 -5
v -3.5 2.2 4.9
v -3.5 2.2 -5
v -2.6 2.2 4.9
v -2.6 2.2 -5
v -2.6 2.3 4.9
v -2.6 2.3 -5
v -1.2 2.2 4.9
v -1.2 2.2 -5
v -1.2 2.3 4.9
v -1.2 2.3 -5
v 1.7 2.2 4.9
v 1.7 2.2 -5
v 1.7 2.3 4.9
v 1.7 2.3 -5
v -1.5 2.2 4.9
v -1.5 2.2 -5
v -1.5 2.3 4.9
v -1.5 2.3 -5
v 1.4 2.2 4.9
v 1.4 2.2 -5
v 1.4 2.3 4.9
v 1.4 2.3 -5
v 2.8 2.2 4.9
v 2.8 2.2 -5
v 2.8 2.3 4.9
v 2.8 2.3 -5
v 3.7 2.1 4.9
v 3.7 2.1 2.9
v 3.7 2.1 0.0999999
v 3.7 2.1 0
v 3.7 2.1 -0.0999999
v 3.7 2.1 -0.2
v 3.7 2.1 -3
v 3.7 2.1 -5
v 3.7 2.2 4.9
v 3.7 2.2 -5
v 5 2 4.9
v 5 2 2.9
v 5 2 0.0999999
v 5 2 0
v 5 2 -0.0999999
v 5 2 -0.2
v 5 2 -3
v 5 2 -5
v 5 2.1 4.9
v 5 2.1 2.9
v 5 2.1 0.0999999
v 5 2.1 0
v 5 2.1 -0.0999999
v 5 2.1 -0.2
v 5 2.1 -3
v 5 2.1 -5
v -4.9 2 4.9
v -4.9 2.1 4.9
v -3.5 2.1 4.9
v -3.5 2.2 4.9
v -2.6 2.2 4.9
v -2.6 2.3 4.9
v -1.5 2.1 4.9
v -1.5 2.2 4.9
v -1.5 2.3 4.9
v -1.2 2.1 4.9
v -1.2 2.2 4.9
v -1.2 2.3 4.9
v 1.4 2.1 4.9
v 1.4 2.2 4.9
v 1.4 2.3 4.9
v 1.7 2.1 4.9
v 1.7 2.2 4.9
v 1.7 2.3 4.9
v 2.8 2.2 4.9
v 2.8 2.3 4.9
v 3.7 2.1 4.9
v 3.7 2.2 4.9
v 5 2 4.9
v 5 2.1 4.9
v -4.9 2 -5
v -4.9 2.1 -5
v -3.5 2.1 -5
v -3.5 2.2 -5
v -2.6 2.2 -5
v -2.6 2.3 -5
v -1.5 2.1 -5
v -1.5 2.2 -5
v -1.5 2.3 -5
v -1.2 2.1 -5
v -1.2 2.2 -5
v -1.2 2.3 -5
v 1.4 2.1 -5
v 1.4 2.2 -5
v 1.4 2.3 -5
v 1.7 2.1 -5
v 1.7 2.2 -5
v 1.7 2.3 -5
v 2.8 2.2 -5
v 2.8 2.3 -5
v 3.7 2.1 -5
v 3.7 2.2 -5
v 5 2 -5
v 5 2.1 -5
v -4.9 2 4.9
v 5 2 4.9
v -1.5 2 4
v -1.2 2 4
v 1.4 2 4
v 1.7 2 4
v -1.2 2 3.3
v 1.4 2 3.3
v -4.9 2 2.9
v -1.5 2 2.9
v 1.7 2 2.9
v 5 2 2.9
v -1.2 2 2.7
v 1.4 2 2.7
v -1.2 2 1.3
v 1.4 2 1.3
v -1.2 2 0.7
v 1.4 2 0.7
v -4.9 2 0.0999999
v -1.5 2 0.0999999
v -1.2 2 0.0999999
v 1.4 2 0.0999999
v 1.7 2 0.0999999
v 5 2 0.0999999
v -4.9 2 0
v -1.5 2 0
v -1.2 2 0
v 1.4 2 0
v 1.7 2 0
v 5 2 0
v -4.9 2 -0.0999999
v -1.5 2 -0.0999999
v -1.2 2 -0.0999999
v 1.4 2 -0.0999999
v 1.7 2 -0.0999999
v 5 2 -0.0999999
v -4.9 2 -0.2
v -1.5 2 -0.2
v -1.2 2 -0.2
v 1.4 2 -0.2
v 1.7 2 -0.2
v 5 2 -0.2
v -1.2 2 -0.7
v 1.4 2 -0.7
v -1.2 2 -1.3
v 1.4 2 -1.3
v -1.2 2 -2.7
v 1.4 2 -2.7
v -4.9 2 -3
v -1.5 2 -3
v 1.7 2 -3
v 5 2 -3
v -1.2 2 -3.3
v 1.4 2 -3.3
v -1.5 2 -4
v -1.2 2 -4
v 1.4 2 -4
v 1.7 2 -4
v -4.9 2 -5
v 5 2 -5
v -4.9 2.1 4.9
v -3.5 2.1 4.9
v 3.7 2.1 4.9
v 5 2.1 4.9
v -4.9 2.1 2.9
v -3.5 2.1 2.9
v 3.7 2.1 2.9
v 5 2.1 2.9
v -4.9 2.1 0.0999999
v -3.5 2.1 0.0999999
v 3.7 2.1 0.0999999
v 5 2.1 0.0999999
v -4.9 2.1 0
v -3.5 2.1 0
v 3.7 2.1 0
v 5 2.1 0
v -4.9 2.1 -0.0999999
v -3.5 2.1 -0.0999999
v 3.7 2.1 -0.0999999
v 5 2.1 -0.0999999
v -4.9 2.1 -0.2
v -3.5 2.1 -0.2
v 3.7 2.1 -0.2
v 5 2.1 -0.2
v -4.9 2.1 -3
v -3.5 2.1 -3
v 3.7 2.1 -3
v 5 2.1 -3
v -4.9 2.1 -5
v -3.5 2.1 -5
v 3.7 2.1 -5
v 5 2.1 -5
v -3.5 2.2 4.9
v -2.6 2.2 4.9
v -1.5 2.2 4.9
v -1.2 2.2 4.9
v 1.4 2.2 4.9
v 1.7 2.2 4.9
v 2.8 2.2 4.9
v 3.7 2.2 4.9
v -3.5 2.2 -5
v -2.6 2.2 -5
v -1.5 2.2 -5
v -1.2 2.2 -5
v 1.4 2.2 -5
v 1.7 2.2 -5
v 2.8 2.2 -5
v 3.7 2.2 -5
v -2.6 2.3 4.9
v -1.5 2.3 4.9
v -1.2 2.3 4.9
v 1.4 2.3 4.9
v 1.7 2.3 4.9
v 2.8 2.3 4.9
v -2.6 2.3 -5
v -1.5 2.3 -5
v -1.2 2.3 -5
v 1.4 2.3 -5
v 1.7 2.3 -5
v 2.8 2.3 -5

# faces
f 9/4/1 2/4/1 1/4/1
f 10/6/1 3/6/1 2/6/1
f 10/4/1 2/4/1 9/4/1
f 11/2/1 4/2/1 3/2/1
f 11/6/1 3/6/1 10/6/1
f 12/6/1 5/6/1 4/6/1
f 12/2/1 4/2/1 11/2/1
f 13/2/1 6/2/1 5/2/1
f 13/6/1 5/6/1 12/6/1
f 14/6/1 7/6/1 6/6/1
f 14/2/1 6/2/1 13/2/1
f 15/4/1 8/4/1 7/4/1
f 15/6/1 7/6/1 14/6/1
f 16/4/1 8/4/1 15/4/1
f 25/3/1 18/3/1 17/3/1
f 25/3/1 24/3/1 23/3/1
f 25/3/1 23/3/1 22/3/1
f 25/3/1 22/3/1 21/3/1
f 25/3/1 21/3/1 20/3/1
f 25/3/1 20/3/1 19/3/1
f 25/3/1 19/3/1 18/3/1
f 26/3/1 24/3/1 25/3/1
f 29/3/1 28/3/1 27/3/1
f 30/3/1 28/3/1 29/3/1
f 33/3/1 32/3/1 31/3/1
f 34/3/1 32/3/1 33/3/1
f 37/3/1 36/3/1 35/3/1
f 38/3/1 36/3/1 37/3/1
f 39/3/2 40/3/2 41/3/2
f 41/3/2 40/3/2 42/3/2
f 43/3/2 44/3/2 45/3/2
f 45/3/2 44/3/2 46/3/2
f 47/3/2 48/3/2 49/3/2
f 49/3/2 48/3/2 50/3/2
f 51/3/2 52/3/2 59/3/2
f 57/3/2 58/3/2 59/3/2
f 56/3/2 57/3/2 59/3/2
f 55/3/2 56/3/2 59/3/2
f 54/3/2 55/3/2 59/3/2
f 53/3/2 54/3/2 59/3/2
f 52/3/2 53/3/2 59/3/2
f 59/3/2 58/3/2 60/3/2
f 61/4/2 62/4/2 69/4/2
f 62/6/2 63/6/2 70/6/2
f 69/4/2 62/4/2 70/4/2
f 63/2/2 64/2/2 71/2/2
f 70/6/2 63/6/2 71/6/2
f 64/6/2 65/6/2 72/6/2
f 71/2/2 64/2/2 72/2/2
f 65/2/2 66/2/2 73/2/2
f 72/6/2 65/6/2 73/6/2
f 66/6/2 67/6/2 74/6/2
f 73/2/2 66/2/2 74/2/2
f 67/4/2 68/4/2 75/4/2
f 74/6/2 67/6/2 75/6/2
f 75/4/2 68/4/2 76/4/2
f 79/4/3 78/4/3 77/4/3
f 81/3/3 80/3/3 79/3/3
f 83/4/3 79/4/3 77/4/3
f 83/3/3 82/3/3 81/3/3
f 83/3/3 81/3/3 79/3/3
f 84/3/3 82/3/3 83/3/3
f 85/3/3 82/3/3 84/3/3
f 86/4/3 83/4/3 77/4/3
f 86/5/3 84/5/3 83/5/3
f 87/5/3 84/5/3 86/5/3
f 89/4/3 86/4/3 77/4/3
f 89/3/3 88/3/3 87/3/3
f 89/3/3 87/3/3 86/3/3
f 90/3/3 88/3/3 89/3/3
f 91/3/3 88/3/3 90/3/3
f 92/4/3 89/4/3 77/4/3
f 92/5/3 90/5/3 89/5/3
f 93/5/3 90/5/3 92/5/3
f 95/3/3 93/3/3 92/3/3
f 95/3/3 94/3/3 93/3/3
f 96/3/3 94/3/3 95/3/3
f 97/4/3 92/4/3 77/4/3
f 97/3/3 95/3/3 92/3/3
f 98/3/3 95/3/3 97/3/3
f 99/4/3 97/4/3 77/4/3
f 100/4/3 97/4/3 99/4/3
f 101/4/4 102/4/4 103/4/4
f 103/3/4 104/3/4 105/3/4
f 101/4/4 103/4/4 107/4/4
f 105/3/4 106/3/4 107/3/4
f 103/3/4 105/3/4 107/3/4
f 107/3/4 106/3/4 108/3/4
f 108/3/4 106/3/4 109/3/4
f 101/4/4 107/4/4 110/4/4
f 107/5/4 108/5/4 110/5/4
f 110/5/4 108/5/4 111/5/4
f 101/4/4 110/4/4 113/4/4
f 111/3/4 112/3/4 113/3/4
f 110/3/4 111/3/4 113/3/4
f 113/3/4 112/3/4 114/3/4
f 114/3/4 112/3/4 115/3/4
f 101/4/4 113/4/4 116/4/4
f 113/5/4 114/5/4 116/5/4
f 116/5/4 114/5/4 117/5/4
f 116/3/4 117/3/4 119/3/4
f 117/3/4 118/3/4 119/3/4
f 119/3/4 118/3/4 120/3/4
f 101/4/4 116/4/4 121/4/4
f 116/3/4 119/3/4 121/3/4
f 121/3/4 119/3/4 122/3/4
f 101/4/4 121/4/4 123/4/4
f 123/4/4 121/4/4 124/4/4
f 127/4/5 126/4/5 125/4/5
f 128/4/5 126/4/5 127/4/5
f 129/4/5 126/4/5 128/4/5
f 130/4/5 126/4/5 129/4/5
f 131/5/5 128/5/5 127/5/5
f 131/4/5 129/4/5 128/4/5
f 132/5/5 130/5/5 129/5/5
f 132/4/5 129/4/5 131/4/5
f 133/4/5 127/4/5 125/4/5
f 134/5/5 131/5/5 127/5/5
f 134/4/5 127/4/5 133/4/5
f 135/5/5 130/5/5 132/5/5
f 135/4/5 126/4/5 130/4/5
f 136/4/5 126/4/5 135/4/5
f 137/5/5 131/5/5 134/5/5
f 137/1/5 132/1/5 131/1/5
f 138/5/5 135/5/5 132/5/5
f 138/1/5 132/1/5 137/1/5
f 139/5/5 137/5/5 134/5/5
f 139/6/5 138/6/5 137/6/5
f 140/5/5 135/5/5 138/5/5
f 140/6/5 138/6/5 139/6/5
f 141/5/5 139/5/5 134/5/5
f 141/1/5 140/1/5 139/1/5
f 142/5/5 135/5/5 140/5/5
f 142/1/5 140/1/5 141/1/5
f 143/6/5 134/6/5 133/6/5
f 144/5/5 141/5/5 134/5/5
f 144/6/5 134/6/5 143/6/5
f 145/6/5 142/6/5 141/6/5
f 145/5/5 141/5/5 144/5/5
f 146/5/5 135/5/5 142/5/5
f 146/6/5 142/6/5 145/6/5
f 147/6/5 136/6/5 135/6/5
f 147/5/5 135/5/5 146/5/5
f 148/6/5 136/6/5 147/6/5
f 149/2/5 144/2/5 143/2/5
f 150/5/5 145/5/5 144/5/5
f 150/2/5 144/2/5 149/2/5
f 151/2/5 146/2/5 145/2/5
f 151/5/5 145/5/5 150/5/5
f 152/5/5 147/5/5 146/5/5
f 152/2/5 146/2/5 151/2/5
f 153/2/5 148/2/5 147/2/5
f 153/5/5 147/5/5 152/5/5
f 154/2/5 148/2/5 153/2/5
f 155/6/5 150/6/5 149/6/5
f 156/5/5 151/5/5 150/5/5
f 156/6/5 150/6/5 155/6/5
f 157/6/5 152/6/5 151/6/5
f 157/5/5 151/5/5 156/5/5
f 158/5/5 153/5/5 152/5/5
f 158/6/5 152/6/5 157/6/5
f 159/6/5 154/6/5 153/6/5
f 159/5/5 153/5/5 158/5/5
f 160/6/5 154/6/5 159/6/5
f 161/2/5 156/2/5 155/2/5
f 162/5/5 157/5/5 156/5/5
f 162/2/5 156/2/5 161/2/5
f 163/2/5 158/2/5 157/2/5
f 163/5/5 157/5/5 162/5/5
f 164/5/5 159/5/5 158/5/5
f 164/2/5 158/2/5 163/2/5
f 165/2/5 160/2/5 159/2/5
f 165/5/5 159/5/5 164/5/5
f 166/2/5 160/2/5 165/2/5
f 167/5/5 163/5/5 162/5/5
f 167/6/5 164/6/5 163/6/5
f 168/5/5 165/5/5 164/5/5
f 168/6/5 164/6/5 167/6/5
f 169/5/5 167/5/5 162/5/5
f 169/1/5 168/1/5 167/1/5
f 170/5/5 165/5/5 168/5/5
f 170/1/5 168/1/5 169/1/5
f 171/5/5 169/5/5 162/5/5
f 171/6/5 170/6/5 169/6/5
f 172/5/5 165/5/5 170/5/5
f 172/6/5 170/6/5 171/6/5
f 173/6/5 162/6/5 161/6/5
f 174/5/5 171/5/5 162/5/5
f 174/6/5 162/6/5 173/6/5
f 175/5/5 165/5/5 172/5/5
f 175/6/5 166/6/5 165/6/5
f 176/6/5 166/6/5 175/6/5
f 177/5/5 171/5/5 174/5/5
f 177/1/5 172/1/5 171/1/5
f 178/5/5 175/5/5 172/5/5
f 178/1/5 172/1/5 177/1/5
f 179/4/5 174/4/5 173/4/5
f 179/5/5 177/5/5 174/5/5
f 180/4/5 178/4/5 177/4/5
f 180/5/5 177/5/5 179/5/5
f 181/5/5 175/5/5 178/5/5
f 181/4/5 178/4/5 180/4/5
f 182/4/5 176/4/5 175/4/5
f 182/5/5 175/5/5 181/5/5
f 183/4/5 180/4/5 179/4/5
f 183/4/5 181/4/5 180/4/5
f 183/4/5 182/4/5 181/4/5
f 183/4/5 179/4/5 173/4/5
f 184/4/5 176/4/5 182/4/5
f 184/4/5 182/4/5 183/4/5
f 185/4/6 186/4/6 189/4/6
f 189/4/6 186/4/6 190/4/6
f 187/4/6 188/4/6 191/4/6
f 191/4/6 188/4/6 192/4/6
f 189/6/6 190/6/6 193/6/6
f 193/6/6 190/6/6 194/6/6
f 191/6/6 192/6/6 195/6/6
f 195/6/6 192/6/6 196/6/6
f 193/2/6 194/2/6 197/2/6
f 197/2/6 194/2/6 198/2/6
f 195/2/6 196/2/6 199/2/6
f 199/2/6 196/2/6 200/2/6
f 197/6/6 198/6/6 201/6/6
f 201/6/6 198/6/6 202/6/6
f 199/6/6 200/6/6 203/6/6
f 203/6/6 200/6/6 204/6/6
f 201/2/6 202/2/6 205/2/6
f 205/2/6 202/2/6 206/2/6
f 203/2/6 204/2/6 207/2/6
f 207/2/6 204/2/6 208/2/6
f 205/6/6 206/6/6 209/6/6
f 209/6/6 206/6/6 210/6/6
f 207/6/6 208/6/6 211/6/6
f 211/6/6 208/6/6 212/6/6
f 209/4/6 210/4/6 213/4/6
f 213/4/6 210/4/6 214/4/6
f 211/4/6 212/4/6 215/4/6
f 215/4/6 212/4/6 216/4/6
f 217/3/6 218/3/6 225/3/6
f 225/3/6 218/3/6 226/3/6
f 219/5/6 220/5/6 227/5/6
f 227/5/6 220/5/6 228/5/6
f 221/5/6 222/5/6 229/5/6
f 229/5/6 222/5/6 230/5/6
f 223/3/6 224/3/6 231/3/6
f 231/3/6 224/3/6 232/3/6
f 233/3/6 234/3/6 239/3/6
f 239/3/6 234/3/6 240/3/6
f 235/3/6 236/3/6 241/3/6
f 241/3/6 236/3/6 242/3/6
f 237/3/6 238/3/6 243/3/6
f 243/3/6 238/3/6 244/3/6
