# MagicaVoxel @ Ephtracy

# group
o 

# material
mtllib road4.mtl
usemtl palette

# normals
vn -1 0 0
vn 1 0 0
vn 0 0 1
vn 0 0 -1
vn 0 -1 0
vn 0 1 0

# texcoords
vt 0.958984 0.5
vt 0.986328 0.5
vt 0.994141 0.5

# verts
v 0 2 0
v 0 2 -2
v 0 2 -4.8
v 0 2 -4.9
v 0 2 -5
v 0 2 -5.1
v 0 2 -7.9
v 0 2 -9.9
v 0 2.1 0
v 0 2.1 -2
v 0 2.1 -4.8
v 0 2.1 -4.9
v 0 2.1 -5
v 0 2.1 -5.1
v 0 2.1 -7.9
v 0 2.1 -9.9
v 9.9 2 0
v 9.9 2 -2
v 9.9 2 -4.8
v 9.9 2 -4.9
v 9.9 2 -5
v 9.9 2 -5.1
v 9.9 2 -7.9
v 9.9 2 -9.9
v 9.9 2.1 0
v 9.9 2.1 -2
v 9.9 2.1 -4.8
v 9.9 2.1 -4.9
v 9.9 2.1 -5
v 9.9 2.1 -5.1
v 9.9 2.1 -7.9
v 9.9 2.1 -9.9
v 0 2 0
v 0 2.1 0
v 2 2 0
v 2 2.1 0
v 4.8 2 0
v 4.8 2.1 0
v 4.9 2 0
v 4.9 2.1 0
v 5 2 0
v 5 2.1 0
v 5.1 2 0
v 5.1 2.1 0
v 7.9 2 0
v 7.9 2.1 0
v 9.9 2 0
v 9.9 2.1 0
v 0 2 -9.9
v 0 2.1 -9.9
v 9.9 2 -9.9
v 9.9 2.1 -9.9
v 0 2 0
v 2 2 0
v 4.8 2 0
v 4.9 2 0
v 5 2 0
v 5.1 2 0
v 7.9 2 0
v 9.9 2 0
v 4.8 2 -0.3
v 4.9 2 -0.3
v 5 2 -0.3
v 5.1 2 -0.3
v 4.8 2 -0.4
v 4.9 2 -0.4
v 5 2 -0.4
v 5.1 2 -0.4
v 1.9 2 -0.5
v 2 2 -0.5
v 7.9 2 -0.5
v 8 2 -0.5
v 4.8 2 -0.7
v 4.9 2 -0.7
v 5 2 -0.7
v 5.1 2 -0.7
v 1.8 2 -0.8
v 1.9 2 -0.8
v 4.8 2 -0.8
v 4.9 2 -0.8
v 5 2 -0.8
v 5.1 2 -0.8
v 8 2 -0.8
v 8.1 2 -0.8
v 1.7 2 -1
v 1.8 2 -1
v 4.8 2 -1
v 4.9 2 -1
v 5 2 -1
v 5.1 2 -1
v 8.1 2 -1
v 8.2 2 -1
v 4.8 2 -1.1
v 4.9 2 -1.1
v 5 2 -1.1
v 5.1 2 -1.1
v 1.6 2 -1.2
v 1.7 2 -1.2
v 8.2 2 -1.2
v 8.3 2 -1.2
v 1.5 2 -1.3
v 1.6 2 -1.3
v 4.8 2 -1.3
v 4.9 2 -1.3
v 5 2 -1.3
v 5.1 2 -1.3
v 8.3 2 -1.3
v 8.4 2 -1.3
v 1.4 2 -1.4
v 1.5 2 -1.4
v 4.9 2 -1.4
v 5 2 -1.4
v 8.4 2 -1.4
v 8.5 2 -1.4
v 1.3 2 -1.5
v 1.4 2 -1.5
v 8.5 2 -1.5
v 8.6 2 -1.5
v 1.2 2 -1.6
v 1.3 2 -1.6
v 8.6 2 -1.6
v 8.7 2 -1.6
v 1 2 -1.7
v 1.2 2 -1.7
v 8.7 2 -1.7
v 8.9 2 -1.7
v 0.8 2 -1.8
v 1 2 -1.8
v 8.9 2 -1.8
v 9.1 2 -1.8
v 0.5 2 -1.9
v 0.8 2 -1.9
v 4.9 2 -1.9
v 5 2 -1.9
v 9.1 2 -1.9
v 9.4 2 -1.9
v 0 2 -2
v 0.5 2 -2
v 9.4 2 -2
v 9.9 2 -2
v 0 2 -4.8
v 0.3 2 -4.8
v 0.4 2 -4.8
v 0.7 2 -4.8
v 0.8 2 -4.8
v 1 2 -4.8
v 1.1 2 -4.8
v 1.3 2 -4.8
v 8.6 2 -4.8
v 8.8 2 -4.8
v 8.9 2 -4.8
v 9.1 2 -4.8
v 9.2 2 -4.8
v 9.5 2 -4.8
v 9.6 2 -4.8
v 9.9 2 -4.8
v 0 2 -4.9
v 0.3 2 -4.9
v 0.4 2 -4.9
v 0.7 2 -4.9
v 0.8 2 -4.9
v 1 2 -4.9
v 1.1 2 -4.9
v 1.3 2 -4.9
v 1.4 2 -4.9
v 1.9 2 -4.9
v 8 2 -4.9
v 8.5 2 -4.9
v 8.6 2 -4.9
v 8.8 2 -4.9
v 8.9 2 -4.9
v 9.1 2 -4.9
v 9.2 2 -4.9
v 9.5 2 -4.9
v 9.6 2 -4.9
v 9.9 2 -4.9
v 0 2 -5
v 0.3 2 -5
v 0.4 2 -5
v 0.7 2 -5
v 0.8 2 -5
v 1 2 -5
v 1.1 2 -5
v 1.3 2 -5
v 1.4 2 -5
v 1.9 2 -5
v 8 2 -5
v 8.5 2 -5
v 8.6 2 -5
v 8.8 2 -5
v 8.9 2 -5
v 9.1 2 -5
v 9.2 2 -5
v 9.5 2 -5
v 9.6 2 -5
v 9.9 2 -5
v 0 2 -5.1
v 0.3 2 -5.1
v 0.4 2 -5.1
v 0.7 2 -5.1
v 0.8 2 -5.1
v 1 2 -5.1
v 1.1 2 -5.1
v 1.3 2 -5.1
v 8.6 2 -5.1
v 8.8 2 -5.1
v 8.9 2 -5.1
v 9.1 2 -5.1
v 9.2 2 -5.1
v 9.5 2 -5.1
v 9.6 2 -5.1
v 9.9 2 -5.1
v 0 2 -7.9
v 9.9 2 -7.9
v 0 2 -9.9
v 9.9 2 -9.9
v 0 2.1 0
v 2 2.1 0
v 4.8 2.1 0
v 4.9 2.1 0
v 5 2.1 0
v 5.1 2.1 0
v 7.9 2.1 0
v 9.9 2.1 0
v 4.8 2.1 -0.3
v 4.9 2.1 -0.3
v 5 2.1 -0.3
v 5.1 2.1 -0.3
v 4.8 2.1 -0.4
v 4.9 2.1 -0.4
v 5 2.1 -0.4
v 5.1 2.1 -0.4
v 1.9 2.1 -0.5
v 2 2.1 -0.5
v 7.9 2.1 -0.5
v 8 2.1 -0.5
v 4.8 2.1 -0.7
v 4.9 2.1 -0.7
v 5 2.1 -0.7
v 5.1 2.1 -0.7
v 1.8 2.1 -0.8
v 1.9 2.1 -0.8
v 4.8 2.1 -0.8
v 4.9 2.1 -0.8
v 5 2.1 -0.8
v 5.1 2.1 -0.8
v 8 2.1 -0.8
v 8.1 2.1 -0.8
v 1.7 2.1 -1
v 1.8 2.1 -1
v 4.8 2.1 -1
v 4.9 2.1 -1
v 5 2.1 -1
v 5.1 2.1 -1
v 8.1 2.1 -1
v 8.2 2.1 -1
v 4.8 2.1 -1.1
v 4.9 2.1 -1.1
v 5 2.1 -1.1
v 5.1 2.1 -1.1
v 1.6 2.1 -1.2
v 1.7 2.1 -1.2
v 8.2 2.1 -1.2
v 8.3 2.1 -1.2
v 1.5 2.1 -1.3
v 1.6 2.1 -1.3
v 4.8 2.1 -1.3
v 4.9 2.1 -1.3
v 5 2.1 -1.3
v 5.1 2.1 -1.3
v 8.3 2.1 -1.3
v 8.4 2.1 -1.3
v 1.4 2.1 -1.4
v 1.5 2.1 -1.4
v 4.9 2.1 -1.4
v 5 2.1 -1.4
v 8.4 2.1 -1.4
v 8.5 2.1 -1.4
v 1.3 2.1 -1.5
v 1.4 2.1 -1.5
v 8.5 2.1 -1.5
v 8.6 2.1 -1.5
v 1.2 2.1 -1.6
v 1.3 2.1 -1.6
v 8.6 2.1 -1.6
v 8.7 2.1 -1.6
v 1 2.1 -1.7
v 1.2 2.1 -1.7
v 8.7 2.1 -1.7
v 8.9 2.1 -1.7
v 0.8 2.1 -1.8
v 1 2.1 -1.8
v 8.9 2.1 -1.8
v 9.1 2.1 -1.8
v 0.5 2.1 -1.9
v 0.8 2.1 -1.9
v 4.9 2.1 -1.9
v 5 2.1 -1.9
v 9.1 2.1 -1.9
v 9.4 2.1 -1.9
v 0 2.1 -2
v 0.5 2.1 -2
v 9.4 2.1 -2
v 9.9 2.1 -2
v 0 2.1 -4.8
v 0.3 2.1 -4.8
v 0.4 2.1 -4.8
v 0.7 2.1 -4.8
v 0.8 2.1 -4.8
v 1 2.1 -4.8
v 1.1 2.1 -4.8
v 1.3 2.1 -4.8
v 8.6 2.1 -4.8
v 8.8 2.1 -4.8
v 8.9 2.1 -4.8
v 9.1 2.1 -4.8
v 9.2 2.1 -4.8
v 9.5 2.1 -4.8
v 9.6 2.1 -4.8
v 9.9 2.1 -4.8
v 0 2.1 -4.9
v 0.3 2.1 -4.9
v 0.4 2.1 -4.9
v 0.7 2.1 -4.9
v 0.8 2.1 -4.9
v 1 2.1 -4.9
v 1.1 2.1 -4.9
v 1.3 2.1 -4.9
v 1.4 2.1 -4.9
v 1.9 2.1 -4.9
v 8 2.1 -4.9
v 8.5 2.1 -4.9
v 8.6 2.1 -4.9
v 8.8 2.1 -4.9
v 8.9 2.1 -4.9
v 9.1 2.1 -4.9
v 9.2 2.1 -4.9
v 9.5 2.1 -4.9
v 9.6 2.1 -4.9
v 9.9 2.1 -4.9
v 0 2.1 -5
v 0.3 2.1 -5
v 0.4 2.1 -5
v 0.7 2.1 -5
v 0.8 2.1 -5
v 1 2.1 -5
v 1.1 2.1 -5
v 1.3 2.1 -5
v 1.4 2.1 -5
v 1.9 2.1 -5
v 8 2.1 -5
v 8.5 2.1 -5
v 8.6 2.1 -5
v 8.8 2.1 -5
v 8.9 2.1 -5
v 9.1 2.1 -5
v 9.2 2.1 -5
v 9.5 2.1 -5
v 9.6 2.1 -5
v 9.9 2.1 -5
v 0 2.1 -5.1
v 0.3 2.1 -5.1
v 0.4 2.1 -5.1
v 0.7 2.1 -5.1
v 0.8 2.1 -5.1
v 1 2.1 -5.1
v 1.1 2.1 -5.1
v 1.3 2.1 -5.1
v 8.6 2.1 -5.1
v 8.8 2.1 -5.1
v 8.9 2.1 -5.1
v 9.1 2.1 -5.1
v 9.2 2.1 -5.1
v 9.5 2.1 -5.1
v 9.6 2.1 -5.1
v 9.9 2.1 -5.1
v 0 2.1 -7.9
v 9.9 2.1 -7.9
v 0 2.1 -9.9
v 9.9 2.1 -9.9

# faces
f 9/2/1 2/2/1 1/2/1
f 10/3/1 3/3/1 2/3/1
f 10/2/1 2/2/1 9/2/1
f 11/1/1 4/1/1 3/1/1
f 11/3/1 3/3/1 10/3/1
f 12/3/1 5/3/1 4/3/1
f 12/1/1 4/1/1 11/1/1
f 13/1/1 6/1/1 5/1/1
f 13/3/1 5/3/1 12/3/1
f 14/3/1 7/3/1 6/3/1
f 14/1/1 6/1/1 13/1/1
f 15/2/1 8/2/1 7/2/1
f 15/3/1 7/3/1 14/3/1
f 16/2/1 8/2/1 15/2/1
f 17/2/2 18/2/2 25/2/2
f 18/3/2 19/3/2 26/3/2
f 25/2/2 18/2/2 26/2/2
f 19/1/2 20/1/2 27/1/2
f 26/3/2 19/3/2 27/3/2
f 20/3/2 21/3/2 28/3/2
f 27/1/2 20/1/2 28/1/2
f 21/1/2 22/1/2 29/1/2
f 28/3/2 21/3/2 29/3/2
f 22/3/2 23/3/2 30/3/2
f 29/1/2 22/1/2 30/1/2
f 23/2/2 24/2/2 31/2/2
f 30/3/2 23/3/2 31/3/2
f 31/2/2 24/2/2 32/2/2
f 35/2/3 34/2/3 33/2/3
f 36/2/3 34/2/3 35/2/3
f 37/3/3 36/3/3 35/3/3
f 38/3/3 36/3/3 37/3/3
f 39/1/3 38/1/3 37/1/3
f 40/1/3 38/1/3 39/1/3
f 41/3/3 40/3/3 39/3/3
f 42/3/3 40/3/3 41/3/3
f 43/1/3 42/1/3 41/1/3
f 44/1/3 42/1/3 43/1/3
f 45/3/3 44/3/3 43/3/3
f 46/3/3 44/3/3 45/3/3
f 47/2/3 46/2/3 45/2/3
f 48/2/3 46/2/3 47/2/3
f 49/2/4 50/2/4 51/2/4
f 51/2/4 50/2/4 52/2/4
f 61/3/5 55/3/5 54/3/5
f 61/1/5 56/1/5 55/1/5
f 62/3/5 57/3/5 56/3/5
f 62/1/5 56/1/5 61/1/5
f 63/1/5 58/1/5 57/1/5
f 63/3/5 57/3/5 62/3/5
f 64/3/5 59/3/5 58/3/5
f 64/1/5 58/1/5 63/1/5
f 65/3/5 63/3/5 62/3/5
f 65/3/5 61/3/5 54/3/5
f 65/3/5 64/3/5 63/3/5
f 65/3/5 62/3/5 61/3/5
f 66/3/5 64/3/5 65/3/5
f 67/3/5 64/3/5 66/3/5
f 68/3/5 59/3/5 64/3/5
f 68/3/5 64/3/5 67/3/5
f 69/2/5 54/2/5 53/2/5
f 70/3/5 65/3/5 54/3/5
f 70/2/5 54/2/5 69/2/5
f 71/3/5 59/3/5 68/3/5
f 71/2/5 60/2/5 59/2/5
f 72/2/5 60/2/5 71/2/5
f 73/3/5 65/3/5 70/3/5
f 73/3/5 70/3/5 69/3/5
f 73/1/5 66/1/5 65/1/5
f 74/3/5 67/3/5 66/3/5
f 74/1/5 66/1/5 73/1/5
f 75/1/5 68/1/5 67/1/5
f 75/3/5 67/3/5 74/3/5
f 76/3/5 72/3/5 71/3/5
f 76/1/5 68/1/5 75/1/5
f 76/3/5 71/3/5 68/3/5
f 77/2/5 69/2/5 53/2/5
f 78/3/5 75/3/5 74/3/5
f 78/2/5 69/2/5 77/2/5
f 78/3/5 73/3/5 69/3/5
f 78/3/5 76/3/5 75/3/5
f 78/3/5 74/3/5 73/3/5
f 79/3/5 76/3/5 78/3/5
f 80/3/5 76/3/5 79/3/5
f 81/3/5 76/3/5 80/3/5
f 82/3/5 72/3/5 76/3/5
f 82/3/5 76/3/5 81/3/5
f 83/2/5 60/2/5 72/2/5
f 83/3/5 72/3/5 82/3/5
f 84/2/5 60/2/5 83/2/5
f 85/2/5 77/2/5 53/2/5
f 86/3/5 78/3/5 77/3/5
f 86/2/5 77/2/5 85/2/5
f 86/3/5 79/3/5 78/3/5
f 87/1/5 80/1/5 79/1/5
f 87/3/5 79/3/5 86/3/5
f 88/3/5 81/3/5 80/3/5
f 88/1/5 80/1/5 87/1/5
f 89/1/5 82/1/5 81/1/5
f 89/3/5 81/3/5 88/3/5
f 90/3/5 84/3/5 83/3/5
f 90/1/5 82/1/5 89/1/5
f 90/3/5 83/3/5 82/3/5
f 91/2/5 60/2/5 84/2/5
f 91/3/5 84/3/5 90/3/5
f 92/2/5 60/2/5 91/2/5
f 93/3/5 88/3/5 87/3/5
f 93/3/5 90/3/5 89/3/5
f 93/3/5 92/3/5 91/3/5
f 93/3/5 91/3/5 90/3/5
f 93/3/5 86/3/5 85/3/5
f 93/3/5 89/3/5 88/3/5
f 93/3/5 87/3/5 86/3/5
f 94/3/5 92/3/5 93/3/5
f 95/3/5 92/3/5 94/3/5
f 96/3/5 92/3/5 95/3/5
f 97/2/5 85/2/5 53/2/5
f 98/3/5 93/3/5 85/3/5
f 98/2/5 85/2/5 97/2/5
f 99/2/5 60/2/5 92/2/5
f 99/3/5 92/3/5 96/3/5
f 100/2/5 60/2/5 99/2/5
f 101/2/5 97/2/5 53/2/5
f 102/3/5 98/3/5 97/3/5
f 102/2/5 97/2/5 101/2/5
f 103/3/5 93/3/5 98/3/5
f 103/3/5 98/3/5 102/3/5
f 103/1/5 94/1/5 93/1/5
f 104/3/5 95/3/5 94/3/5
f 104/1/5 94/1/5 103/1/5
f 105/1/5 96/1/5 95/1/5
f 105/3/5 95/3/5 104/3/5
f 106/3/5 100/3/5 99/3/5
f 106/1/5 96/1/5 105/1/5
f 106/3/5 99/3/5 96/3/5
f 107/2/5 60/2/5 100/2/5
f 107/3/5 100/3/5 106/3/5
f 108/2/5 60/2/5 107/2/5
f 109/2/5 101/2/5 53/2/5
f 110/3/5 102/3/5 101/3/5
f 110/2/5 101/2/5 109/2/5
f 110/3/5 106/3/5 105/3/5
f 110/3/5 108/3/5 107/3/5
f 110/3/5 107/3/5 106/3/5
f 110/3/5 104/3/5 103/3/5
f 110/3/5 103/3/5 102/3/5
f 110/3/5 105/3/5 104/3/5
f 111/3/5 108/3/5 110/3/5
f 112/3/5 108/3/5 111/3/5
f 113/2/5 60/2/5 108/2/5
f 113/3/5 108/3/5 112/3/5
f 114/2/5 60/2/5 113/2/5
f 115/2/5 109/2/5 53/2/5
f 116/3/5 110/3/5 109/3/5
f 116/2/5 109/2/5 115/2/5
f 116/3/5 111/3/5 110/3/5
f 117/2/5 60/2/5 114/2/5
f 117/3/5 114/3/5 113/3/5
f 117/3/5 113/3/5 112/3/5
f 118/2/5 60/2/5 117/2/5
f 119/2/5 115/2/5 53/2/5
f 120/3/5 116/3/5 115/3/5
f 120/2/5 115/2/5 119/2/5
f 121/2/5 60/2/5 118/2/5
f 121/3/5 118/3/5 117/3/5
f 122/2/5 60/2/5 121/2/5
f 123/2/5 119/2/5 53/2/5
f 124/3/5 120/3/5 119/3/5
f 124/2/5 119/2/5 123/2/5
f 125/2/5 60/2/5 122/2/5
f 125/3/5 122/3/5 121/3/5
f 126/2/5 60/2/5 125/2/5
f 127/2/5 123/2/5 53/2/5
f 128/3/5 124/3/5 123/3/5
f 128/2/5 123/2/5 127/2/5
f 129/2/5 60/2/5 126/2/5
f 129/3/5 126/3/5 125/3/5
f 130/2/5 60/2/5 129/2/5
f 131/2/5 127/2/5 53/2/5
f 132/3/5 128/3/5 127/3/5
f 132/2/5 127/2/5 131/2/5
f 133/3/5 111/3/5 116/3/5
f 133/3/5 128/3/5 132/3/5
f 133/1/5 112/1/5 111/1/5
f 133/3/5 116/3/5 120/3/5
f 133/3/5 120/3/5 124/3/5
f 133/3/5 124/3/5 128/3/5
f 134/3/5 130/3/5 129/3/5
f 134/1/5 112/1/5 133/1/5
f 134/3/5 129/3/5 125/3/5
f 134/3/5 117/3/5 112/3/5
f 134/3/5 121/3/5 117/3/5
f 134/3/5 125/3/5 121/3/5
f 135/2/5 60/2/5 130/2/5
f 135/3/5 130/3/5 134/3/5
f 136/2/5 60/2/5 135/2/5
f 137/2/5 131/2/5 53/2/5
f 138/3/5 132/3/5 131/3/5
f 138/2/5 131/2/5 137/2/5
f 138/3/5 133/3/5 132/3/5
f 138/3/5 136/3/5 135/3/5
f 138/3/5 135/3/5 134/3/5
f 138/3/5 134/3/5 133/3/5
f 139/2/5 60/2/5 136/2/5
f 139/3/5 136/3/5 138/3/5
f 140/2/5 60/2/5 139/2/5
f 141/3/5 138/3/5 137/3/5
f 141/3/5 139/3/5 138/3/5
f 141/3/5 140/3/5 139/3/5
f 142/3/5 140/3/5 141/3/5
f 143/3/5 140/3/5 142/3/5
f 144/3/5 140/3/5 143/3/5
f 145/3/5 140/3/5 144/3/5
f 146/3/5 140/3/5 145/3/5
f 147/3/5 140/3/5 146/3/5
f 148/3/5 140/3/5 147/3/5
f 149/3/5 140/3/5 148/3/5
f 150/3/5 140/3/5 149/3/5
f 151/3/5 140/3/5 150/3/5
f 152/3/5 140/3/5 151/3/5
f 153/3/5 140/3/5 152/3/5
f 154/3/5 140/3/5 153/3/5
f 155/3/5 140/3/5 154/3/5
f 156/3/5 140/3/5 155/3/5
f 157/1/5 142/1/5 141/1/5
f 158/3/5 143/3/5 142/3/5
f 158/1/5 142/1/5 157/1/5
f 159/1/5 144/1/5 143/1/5
f 159/3/5 143/3/5 158/3/5
f 160/3/5 145/3/5 144/3/5
f 160/1/5 144/1/5 159/1/5
f 161/1/5 146/1/5 145/1/5
f 161/3/5 145/3/5 160/3/5
f 162/3/5 147/3/5 146/3/5
f 162/1/5 146/1/5 161/1/5
f 163/1/5 148/1/5 147/1/5
f 163/3/5 147/3/5 162/3/5
f 164/3/5 149/3/5 148/3/5
f 164/1/5 148/1/5 163/1/5
f 165/3/5 149/3/5 164/3/5
f 166/3/5 149/3/5 165/3/5
f 167/3/5 149/3/5 166/3/5
f 168/3/5 149/3/5 167/3/5
f 169/1/5 150/1/5 149/1/5
f 169/3/5 149/3/5 168/3/5
f 170/3/5 151/3/5 150/3/5
f 170/1/5 150/1/5 169/1/5
f 171/1/5 152/1/5 151/1/5
f 171/3/5 151/3/5 170/3/5
f 172/3/5 153/3/5 152/3/5
f 172/1/5 152/1/5 171/1/5
f 173/1/5 154/1/5 153/1/5
f 173/3/5 153/3/5 172/3/5
f 174/3/5 155/3/5 154/3/5
f 174/1/5 154/1/5 173/1/5
f 175/1/5 156/1/5 155/1/5
f 175/3/5 155/3/5 174/3/5
f 176/1/5 156/1/5 175/1/5
f 177/3/5 158/3/5 157/3/5
f 177/3/5 159/3/5 158/3/5
f 177/3/5 160/3/5 159/3/5
f 177/3/5 161/3/5 160/3/5
f 177/3/5 162/3/5 161/3/5
f 177/3/5 163/3/5 162/3/5
f 177/3/5 165/3/5 164/3/5
f 177/3/5 164/3/5 163/3/5
f 178/3/5 165/3/5 177/3/5
f 179/3/5 165/3/5 178/3/5
f 180/3/5 165/3/5 179/3/5
f 181/3/5 165/3/5 180/3/5
f 182/3/5 165/3/5 181/3/5
f 183/3/5 165/3/5 182/3/5
f 184/3/5 165/3/5 183/3/5
f 185/1/5 166/1/5 165/1/5
f 185/3/5 165/3/5 184/3/5
f 186/3/5 167/3/5 166/3/5
f 186/1/5 166/1/5 185/1/5
f 187/1/5 168/1/5 167/1/5
f 187/3/5 167/3/5 186/3/5
f 188/3/5 176/3/5 175/3/5
f 188/1/5 168/1/5 187/1/5
f 188/3/5 175/3/5 174/3/5
f 188/3/5 174/3/5 173/3/5
f 188/3/5 169/3/5 168/3/5
f 188/3/5 170/3/5 169/3/5
f 188/3/5 171/3/5 170/3/5
f 188/3/5 172/3/5 171/3/5
f 188/3/5 173/3/5 172/3/5
f 189/3/5 176/3/5 188/3/5
f 190/3/5 176/3/5 189/3/5
f 191/3/5 176/3/5 190/3/5
f 192/3/5 176/3/5 191/3/5
f 193/3/5 176/3/5 192/3/5
f 194/3/5 176/3/5 193/3/5
f 195/3/5 176/3/5 194/3/5
f 196/3/5 176/3/5 195/3/5
f 197/1/5 178/1/5 177/1/5
f 198/3/5 179/3/5 178/3/5
f 198/1/5 178/1/5 197/1/5
f 199/1/5 180/1/5 179/1/5
f 199/3/5 179/3/5 198/3/5
f 200/3/5 181/3/5 180/3/5
f 200/1/5 180/1/5 199/1/5
f 201/1/5 182/1/5 181/1/5
f 201/3/5 181/3/5 200/3/5
f 202/3/5 183/3/5 182/3/5
f 202/1/5 182/1/5 201/1/5
f 203/1/5 184/1/5 183/1/5
f 203/3/5 183/3/5 202/3/5
f 204/3/5 187/3/5 186/3/5
f 204/1/5 184/1/5 203/1/5
f 204/3/5 185/3/5 184/3/5
f 204/3/5 186/3/5 185/3/5
f 204/3/5 188/3/5 187/3/5
f 204/3/5 189/3/5 188/3/5
f 205/1/5 190/1/5 189/1/5
f 205/3/5 189/3/5 204/3/5
f 206/3/5 191/3/5 190/3/5
f 206/1/5 190/1/5 205/1/5
f 207/1/5 192/1/5 191/1/5
f 207/3/5 191/3/5 206/3/5
f 208/3/5 193/3/5 192/3/5
f 208/1/5 192/1/5 207/1/5
f 209/1/5 194/1/5 193/1/5
f 209/3/5 193/3/5 208/3/5
f 210/3/5 195/3/5 194/3/5
f 210/1/5 194/1/5 209/1/5
f 211/1/5 196/1/5 195/1/5
f 211/3/5 195/3/5 210/3/5
f 212/1/5 196/1/5 211/1/5
f 213/3/5 203/3/5 202/3/5
f 213/3/5 201/3/5 200/3/5
f 213/3/5 212/3/5 211/3/5
f 213/3/5 211/3/5 210/3/5
f 213/3/5 206/3/5 205/3/5
f 213/3/5 205/3/5 204/3/5
f 213/3/5 204/3/5 203/3/5
f 213/3/5 207/3/5 206/3/5
f 213/3/5 208/3/5 207/3/5
f 213/3/5 210/3/5 209/3/5
f 213/3/5 202/3/5 201/3/5
f 213/3/5 200/3/5 199/3/5
f 213/3/5 198/3/5 197/3/5
f 213/3/5 199/3/5 198/3/5
f 213/3/5 209/3/5 208/3/5
f 214/3/5 212/3/5 213/3/5
f 215/2/5 214/2/5 213/2/5
f 216/2/5 214/2/5 215/2/5
f 218/3/6 219/3/6 225/3/6
f 219/1/6 220/1/6 225/1/6
f 220/3/6 221/3/6 226/3/6
f 225/1/6 220/1/6 226/1/6
f 221/1/6 222/1/6 227/1/6
f 226/3/6 221/3/6 227/3/6
f 222/3/6 223/3/6 228/3/6
f 227/1/6 222/1/6 228/1/6
f 226/3/6 227/3/6 229/3/6
f 218/3/6 225/3/6 229/3/6
f 227/3/6 228/3/6 229/3/6
f 225/3/6 226/3/6 229/3/6
f 229/3/6 228/3/6 230/3/6
f 230/3/6 228/3/6 231/3/6
f 228/3/6 223/3/6 232/3/6
f 231/3/6 228/3/6 232/3/6
f 217/2/6 218/2/6 233/2/6
f 218/3/6 229/3/6 234/3/6
f 233/2/6 218/2/6 234/2/6
f 232/3/6 223/3/6 235/3/6
f 223/2/6 224/2/6 235/2/6
f 235/2/6 224/2/6 236/2/6
f 234/3/6 229/3/6 237/3/6
f 233/3/6 234/3/6 237/3/6
f 229/1/6 230/1/6 237/1/6
f 230/3/6 231/3/6 238/3/6
f 237/1/6 230/1/6 238/1/6
f 231/1/6 232/1/6 239/1/6
f 238/3/6 231/3/6 239/3/6
f 235/3/6 236/3/6 240/3/6
f 239/1/6 232/1/6 240/1/6
f 232/3/6 235/3/6 240/3/6
f 217/2/6 233/2/6 241/2/6
f 238/3/6 239/3/6 242/3/6
f 241/2/6 233/2/6 242/2/6
f 233/3/6 237/3/6 242/3/6
f 239/3/6 240/3/6 242/3/6
f 237/3/6 238/3/6 242/3/6
f 242/3/6 240/3/6 243/3/6
f 243/3/6 240/3/6 244/3/6
f 244/3/6 240/3/6 245/3/6
f 240/3/6 236/3/6 246/3/6
f 245/3/6 240/3/6 246/3/6
f 236/2/6 224/2/6 247/2/6
f 246/3/6 236/3/6 247/3/6
f 247/2/6 224/2/6 248/2/6
f 217/2/6 241/2/6 249/2/6
f 241/3/6 242/3/6 250/3/6
f 249/2/6 241/2/6 250/2/6
f 242/3/6 243/3/6 250/3/6
f 243/1/6 244/1/6 251/1/6
f 250/3/6 243/3/6 251/3/6
f 244/3/6 245/3/6 252/3/6
f 251/1/6 244/1/6 252/1/6
f 245/1/6 246/1/6 253/1/6
f 252/3/6 245/3/6 253/3/6
f 247/3/6 248/3/6 254/3/6
f 253/1/6 246/1/6 254/1/6
f 246/3/6 247/3/6 254/3/6
f 248/2/6 224/2/6 255/2/6
f 254/3/6 248/3/6 255/3/6
f 255/2/6 224/2/6 256/2/6
f 251/3/6 252/3/6 257/3/6
f 253/3/6 254/3/6 257/3/6
f 255/3/6 256/3/6 257/3/6
f 254/3/6 255/3/6 257/3/6
f 249/3/6 250/3/6 257/3/6
f 252/3/6 253/3/6 257/3/6
f 250/3/6 251/3/6 257/3/6
f 257/3/6 256/3/6 258/3/6
f 258/3/6 256/3/6 259/3/6
f 259/3/6 256/3/6 260/3/6
f 217/2/6 249/2/6 261/2/6
f 249/3/6 257/3/6 262/3/6
f 261/2/6 249/2/6 262/2/6
f 256/2/6 224/2/6 263/2/6
f 260/3/6 256/3/6 263/3/6
f 263/2/6 224/2/6 264/2/6
f 217/2/6 261/2/6 265/2/6
f 261/3/6 262/3/6 266/3/6
f 265/2/6 261/2/6 266/2/6
f 262/3/6 257/3/6 267/3/6
f 266/3/6 262/3/6 267/3/6
f 257/1/6 258/1/6 267/1/6
f 258/3/6 259/3/6 268/3/6
f 267/1/6 258/1/6 268/1/6
f 259/1/6 260/1/6 269/1/6
f 268/3/6 259/3/6 269/3/6
f 263/3/6 264/3/6 270/3/6
f 269/1/6 260/1/6 270/1/6
f 260/3/6 263/3/6 270/3/6
f 264/2/6 224/2/6 271/2/6
f 270/3/6 264/3/6 271/3/6
f 271/2/6 224/2/6 272/2/6
f 217/2/6 265/2/6 273/2/6
f 265/3/6 266/3/6 274/3/6
f 273/2/6 265/2/6 274/2/6
f 269/3/6 270/3/6 274/3/6
f 271/3/6 272/3/6 274/3/6
f 270/3/6 271/3/6 274/3/6
f 267/3/6 268/3/6 274/3/6
f 266/3/6 267/3/6 274/3/6
f 268/3/6 269/3/6 274/3/6
f 274/3/6 272/3/6 275/3/6
f 275/3/6 272/3/6 276/3/6
f 272/2/6 224/2/6 277/2/6
f 276/3/6 272/3/6 277/3/6
f 277/2/6 224/2/6 278/2/6
f 217/2/6 273/2/6 279/2/6
f 273/3/6 274/3/6 280/3/6
f 279/2/6 273/2/6 280/2/6
f 274/3/6 275/3/6 280/3/6
f 278/2/6 224/2/6 281/2/6
f 277/3/6 278/3/6 281/3/6
f 276/3/6 277/3/6 281/3/6
f 281/2/6 224/2/6 282/2/6
f 217/2/6 279/2/6 283/2/6
f 279/3/6 280/3/6 284/3/6
f 283/2/6 279/2/6 284/2/6
f 282/2/6 224/2/6 285/2/6
f 281/3/6 282/3/6 285/3/6
f 285/2/6 224/2/6 286/2/6
f 217/2/6 283/2/6 287/2/6
f 283/3/6 284/3/6 288/3/6
f 287/2/6 283/2/6 288/2/6
f 286/2/6 224/2/6 289/2/6
f 285/3/6 286/3/6 289/3/6
f 289/2/6 224/2/6 290/2/6
f 217/2/6 287/2/6 291/2/6
f 287/3/6 288/3/6 292/3/6
f 291/2/6 287/2/6 292/2/6
f 290/2/6 224/2/6 293/2/6
f 289/3/6 290/3/6 293/3/6
f 293/2/6 224/2/6 294/2/6
f 217/2/6 291/2/6 295/2/6
f 291/3/6 292/3/6 296/3/6
f 295/2/6 291/2/6 296/2/6
f 280/3/6 275/3/6 297/3/6
f 296/3/6 292/3/6 297/3/6
f 275/1/6 276/1/6 297/1/6
f 284/3/6 280/3/6 297/3/6
f 288/3/6 284/3/6 297/3/6
f 292/3/6 288/3/6 297/3/6
f 293/3/6 294/3/6 298/3/6
f 297/1/6 276/1/6 298/1/6
f 289/3/6 293/3/6 298/3/6
f 276/3/6 281/3/6 298/3/6
f 281/3/6 285/3/6 298/3/6
f 285/3/6 289/3/6 298/3/6
f 294/2/6 224/2/6 299/2/6
f 298/3/6 294/3/6 299/3/6
f 299/2/6 224/2/6 300/2/6
f 217/2/6 295/2/6 301/2/6
f 295/3/6 296/3/6 302/3/6
f 301/2/6 295/2/6 302/2/6
f 296/3/6 297/3/6 302/3/6
f 299/3/6 300/3/6 302/3/6
f 298/3/6 299/3/6 302/3/6
f 297/3/6 298/3/6 302/3/6
f 300/2/6 224/2/6 303/2/6
f 302/3/6 300/3/6 303/3/6
f 303/2/6 224/2/6 304/2/6
f 301/3/6 302/3/6 305/3/6
f 302/3/6 303/3/6 305/3/6
f 303/3/6 304/3/6 305/3/6
f 305/3/6 304/3/6 306/3/6
f 306/3/6 304/3/6 307/3/6
f 307/3/6 304/3/6 308/3/6
f 308/3/6 304/3/6 309/3/6
f 309/3/6 304/3/6 310/3/6
f 310/3/6 304/3/6 311/3/6
f 311/3/6 304/3/6 312/3/6
f 312/3/6 304/3/6 313/3/6
f 313/3/6 304/3/6 314/3/6
f 314/3/6 304/3/6 315/3/6
f 315/3/6 304/3/6 316/3/6
f 316/3/6 304/3/6 317/3/6
f 317/3/6 304/3/6 318/3/6
f 318/3/6 304/3/6 319/3/6
f 319/3/6 304/3/6 320/3/6
f 305/1/6 306/1/6 321/1/6
f 306/3/6 307/3/6 322/3/6
f 321/1/6 306/1/6 322/1/6
f 307/1/6 308/1/6 323/1/6
f 322/3/6 307/3/6 323/3/6
f 308/3/6 309/3/6 324/3/6
f 323/1/6 308/1/6 324/1/6
f 309/1/6 310/1/6 325/1/6
f 324/3/6 309/3/6 325/3/6
f 310/3/6 311/3/6 326/3/6
f 325/1/6 310/1/6 326/1/6
f 311/1/6 312/1/6 327/1/6
f 326/3/6 311/3/6 327/3/6
f 312/3/6 313/3/6 328/3/6
f 327/1/6 312/1/6 328/1/6
f 328/3/6 313/3/6 329/3/6
f 329/3/6 313/3/6 330/3/6
f 330/3/6 313/3/6 331/3/6
f 331/3/6 313/3/6 332/3/6
f 313/1/6 314/1/6 333/1/6
f 332/3/6 313/3/6 333/3/6
f 314/3/6 315/3/6 334/3/6
f 333/1/6 314/1/6 334/1/6
f 315/1/6 316/1/6 335/1/6
f 334/3/6 315/3/6 335/3/6
f 316/3/6 317/3/6 336/3/6
f 335/1/6 316/1/6 336/1/6
f 317/1/6 318/1/6 337/1/6
f 336/3/6 317/3/6 337/3/6
f 318/3/6 319/3/6 338/3/6
f 337/1/6 318/1/6 338/1/6
f 319/1/6 320/1/6 339/1/6
f 338/3/6 319/3/6 339/3/6
f 339/1/6 320/1/6 340/1/6
f 321/3/6 322/3/6 341/3/6
f 322/3/6 323/3/6 341/3/6
f 323/3/6 324/3/6 341/3/6
f 324/3/6 325/3/6 341/3/6
f 325/3/6 326/3/6 341/3/6
f 326/3/6 327/3/6 341/3/6
f 328/3/6 329/3/6 341/3/6
f 327/3/6 328/3/6 341/3/6
f 341/3/6 329/3/6 342/3/6
f 342/3/6 329/3/6 343/3/6
f 343/3/6 329/3/6 344/3/6
f 344/3/6 329/3/6 345/3/6
f 345/3/6 329/3/6 346/3/6
f 346/3/6 329/3/6 347/3/6
f 347/3/6 329/3/6 348/3/6
f 329/1/6 330/1/6 349/1/6
f 348/3/6 329/3/6 349/3/6
f 330/3/6 331/3/6 350/3/6
f 349/1/6 330/1/6 350/1/6
f 331/1/6 332/1/6 351/1/6
f 350/3/6 331/3/6 351/3/6
f 339/3/6 340/3/6 352/3/6
f 351/1/6 332/1/6 352/1/6
f 338/3/6 339/3/6 352/3/6
f 337/3/6 338/3/6 352/3/6
f 332/3/6 333/3/6 352/3/6
f 333/3/6 334/3/6 352/3/6
f 334/3/6 335/3/6 352/3/6
f 335/3/6 336/3/6 352/3/6
f 336/3/6 337/3/6 352/3/6
f 352/3/6 340/3/6 353/3/6
f 353/3/6 340/3/6 354/3/6
f 354/3/6 340/3/6 355/3/6
f 355/3/6 340/3/6 356/3/6
f 356/3/6 340/3/6 357/3/6
f 357/3/6 340/3/6 358/3/6
f 358/3/6 340/3/6 359/3/6
f 359/3/6 340/3/6 360/3/6
f 341/1/6 342/1/6 361/1/6
f 342/3/6 343/3/6 362/3/6
f 361/1/6 342/1/6 362/1/6
f 343/1/6 344/1/6 363/1/6
f 362/3/6 343/3/6 363/3/6
f 344/3/6 345/3/6 364/3/6
f 363/1/6 344/1/6 364/1/6
f 345/1/6 346/1/6 365/1/6
f 364/3/6 345/3/6 365/3/6
f 346/3/6 347/3/6 366/3/6
f 365/1/6 346/1/6 366/1/6
f 347/1/6 348/1/6 367/1/6
f 366/3/6 347/3/6 367/3/6
f 350/3/6 351/3/6 368/3/6
f 367/1/6 348/1/6 368/1/6
f 348/3/6 349/3/6 368/3/6
f 349/3/6 350/3/6 368/3/6
f 351/3/6 352/3/6 368/3/6
f 352/3/6 353/3/6 368/3/6
f 353/1/6 354/1/6 369/1/6
f 368/3/6 353/3/6 369/3/6
f 354/3/6 355/3/6 370/3/6
f 369/1/6 354/1/6 370/1/6
f 355/1/6 356/1/6 371/1/6
f 370/3/6 355/3/6 371/3/6
f 356/3/6 357/3/6 372/3/6
f 371/1/6 356/1/6 372/1/6
f 357/1/6 358/1/6 373/1/6
f 372/3/6 357/3/6 373/3/6
f 358/3/6 359/3/6 374/3/6
f 373/1/6 358/1/6 374/1/6
f 359/1/6 360/1/6 375/1/6
f 374/3/6 359/3/6 375/3/6
f 375/1/6 360/1/6 376/1/6
f 366/3/6 367/3/6 377/3/6
f 364/3/6 365/3/6 377/3/6
f 375/3/6 376/3/6 377/3/6
f 374/3/6 375/3/6 377/3/6
f 369/3/6 370/3/6 377/3/6
f 368/3/6 369/3/6 377/3/6
f 367/3/6 368/3/6 377/3/6
f 370/3/6 371/3/6 377/3/6
f 371/3/6 372/3/6 377/3/6
f 373/3/6 374/3/6 377/3/6
f 365/3/6 366/3/6 377/3/6
f 363/3/6 364/3/6 377/3/6
f 361/3/6 362/3/6 377/3/6
f 362/3/6 363/3/6 377/3/6
f 372/3/6 373/3/6 377/3/6
f 377/3/6 376/3/6 378/3/6
f 377/2/6 378/2/6 379/2/6
f 379/2/6 378/2/6 380/2/6
